<svg width="1219" height="1116" viewBox="0 0 1219 1116" fill="none" xmlns="http://www.w3.org/2000/svg">
<rect width="1219" height="1116" fill="#ffffff"/>
<g id="board">
<rect id="Rectangle 2" x="359" y="189" width="731" height="582" rx="27" fill="url(#paint0_linear_0_1)"/>
<g id="switch">
<rect id="Rectangle 5" x="606" y="436" width="231" height="87" rx="43.5" fill="#D9D9D9"/>
<ellipse id="Ellipse 3" cx="794.5" cy="480" rx="49.5" ry="46" fill="url(#paint1_angular_0_1)"/>
<path id="INSA" d="M635.101 480.071C634.591 480.071 634.209 480 633.954 479.858C633.709 479.717 633.586 479.514 633.586 479.25V463.135C633.586 462.578 634.091 462.3 635.101 462.3H635.979C636.498 462.3 636.876 462.371 637.112 462.512C637.357 462.654 637.48 462.861 637.48 463.135V479.25C637.48 479.797 636.98 480.071 635.979 480.071H635.101ZM642.365 480.042C641.355 480.042 640.85 479.778 640.85 479.25V463.135C640.85 462.861 640.973 462.659 641.218 462.526C641.464 462.385 641.846 462.314 642.365 462.314H643.441C643.847 462.314 644.182 462.361 644.447 462.456C644.711 462.55 644.928 462.734 645.098 463.008L651.045 472.169L651.725 473.189V463.135C651.725 462.861 651.848 462.659 652.093 462.526C652.339 462.385 652.721 462.314 653.24 462.314H653.962C654.482 462.314 654.859 462.385 655.095 462.526C655.341 462.659 655.463 462.861 655.463 463.135V479.25C655.463 479.778 654.963 480.042 653.962 480.042H653C652.584 480.042 652.249 480 651.994 479.915C651.739 479.821 651.527 479.641 651.357 479.377L645.126 469.847L644.588 469.054V479.25C644.588 479.778 644.088 480.042 643.087 480.042H642.365ZM663.676 480.212C662.487 480.212 661.439 480.094 660.533 479.858C659.636 479.613 658.947 479.316 658.465 478.966C657.993 478.617 657.757 478.287 657.757 477.975C657.757 477.73 657.847 477.428 658.026 477.069C658.215 476.71 658.437 476.403 658.692 476.148C658.947 475.884 659.159 475.752 659.329 475.752C659.433 475.752 659.655 475.842 659.995 476.021C660.504 476.285 660.986 476.498 661.439 476.658C661.902 476.819 662.43 476.899 663.025 476.899C663.686 476.899 664.243 476.771 664.696 476.517C665.158 476.252 665.39 475.794 665.39 475.143C665.39 474.765 665.272 474.44 665.036 474.166C664.8 473.892 664.498 473.661 664.129 473.472C663.761 473.283 663.261 473.062 662.628 472.807L661.51 472.325C660.83 471.995 660.245 471.631 659.754 471.235C659.272 470.838 658.876 470.314 658.564 469.663C658.262 469.012 658.111 468.214 658.111 467.27C658.111 466.118 658.395 465.16 658.961 464.396C659.527 463.631 660.264 463.069 661.17 462.71C662.076 462.352 663.049 462.172 664.087 462.172C664.937 462.172 665.706 462.262 666.395 462.441C667.084 462.611 667.622 462.833 668.009 463.107C668.406 463.381 668.604 463.654 668.604 463.928C668.604 464.155 668.528 464.447 668.377 464.806C668.236 465.155 668.056 465.462 667.839 465.727C667.622 465.991 667.419 466.123 667.23 466.123C667.146 466.123 666.994 466.076 666.777 465.981C666.428 465.84 666.074 465.727 665.715 465.642C665.366 465.547 664.937 465.5 664.427 465.5C663.549 465.5 662.94 465.642 662.6 465.925C662.26 466.199 662.09 466.524 662.09 466.902C662.09 467.336 662.204 467.7 662.43 467.992C662.666 468.285 662.959 468.526 663.308 468.714C663.667 468.903 664.162 469.12 664.795 469.366C665.748 469.772 666.527 470.159 667.131 470.527C667.736 470.886 668.255 471.405 668.689 472.084C669.133 472.764 669.354 473.633 669.354 474.69C669.354 475.983 669.081 477.045 668.533 477.876C667.995 478.697 667.297 479.292 666.438 479.66C665.588 480.028 664.667 480.212 663.676 480.212ZM671.351 480.042C670.322 480.042 669.808 479.858 669.808 479.49C669.808 479.386 669.841 479.235 669.907 479.037L675.458 462.852C675.59 462.493 676.066 462.314 676.888 462.314H678.19C679.012 462.314 679.488 462.493 679.621 462.852L685.171 479.037C685.219 479.226 685.242 479.377 685.242 479.49C685.242 479.679 685.138 479.821 684.931 479.915C684.732 480 684.416 480.042 683.982 480.042H682.877C682.481 480.042 682.16 480.005 681.915 479.929C681.679 479.844 681.532 479.707 681.476 479.519L680.456 476.446H674.523L673.503 479.519C673.4 479.868 673.013 480.042 672.342 480.042H671.351ZM679.38 473.118L677.95 468.644C677.865 468.417 677.789 468.157 677.723 467.865C677.667 467.572 677.615 467.294 677.567 467.029H677.468L677.412 467.341C677.317 467.898 677.209 468.332 677.086 468.644L675.599 473.118H679.38Z" fill="url(#paint2_linear_0_1)"/>
<path id="SWITCH" d="M670.57 498.117C669.914 498.117 669.336 498.052 668.836 497.922C668.341 497.786 667.961 497.622 667.695 497.43C667.435 497.237 667.305 497.055 667.305 496.883C667.305 496.747 667.354 496.581 667.453 496.383C667.557 496.185 667.68 496.016 667.82 495.875C667.961 495.729 668.078 495.656 668.172 495.656C668.229 495.656 668.352 495.706 668.539 495.805C668.82 495.951 669.086 496.068 669.336 496.156C669.591 496.245 669.883 496.289 670.211 496.289C670.576 496.289 670.883 496.219 671.133 496.078C671.388 495.932 671.516 495.68 671.516 495.32C671.516 495.112 671.451 494.932 671.32 494.781C671.19 494.63 671.023 494.503 670.82 494.398C670.617 494.294 670.341 494.172 669.992 494.031L669.375 493.766C669 493.583 668.677 493.383 668.406 493.164C668.141 492.945 667.922 492.656 667.75 492.297C667.583 491.938 667.5 491.497 667.5 490.977C667.5 490.341 667.656 489.812 667.969 489.391C668.281 488.969 668.688 488.659 669.188 488.461C669.688 488.263 670.224 488.164 670.797 488.164C671.266 488.164 671.69 488.214 672.07 488.312C672.451 488.406 672.747 488.529 672.961 488.68C673.18 488.831 673.289 488.982 673.289 489.133C673.289 489.258 673.247 489.419 673.164 489.617C673.086 489.81 672.987 489.979 672.867 490.125C672.747 490.271 672.635 490.344 672.531 490.344C672.484 490.344 672.401 490.318 672.281 490.266C672.089 490.188 671.893 490.125 671.695 490.078C671.503 490.026 671.266 490 670.984 490C670.5 490 670.164 490.078 669.977 490.234C669.789 490.385 669.695 490.565 669.695 490.773C669.695 491.013 669.758 491.214 669.883 491.375C670.013 491.536 670.174 491.669 670.367 491.773C670.565 491.878 670.839 491.997 671.188 492.133C671.714 492.357 672.143 492.57 672.477 492.773C672.81 492.971 673.096 493.258 673.336 493.633C673.581 494.008 673.703 494.487 673.703 495.07C673.703 495.784 673.552 496.37 673.25 496.828C672.953 497.281 672.568 497.609 672.094 497.812C671.625 498.016 671.117 498.117 670.57 498.117ZM676.883 498.023C676.659 498.023 676.482 498 676.352 497.953C676.221 497.901 676.146 497.828 676.125 497.734L673.93 488.82C673.909 488.763 673.898 488.693 673.898 488.609C673.898 488.495 673.969 488.406 674.109 488.344C674.255 488.276 674.474 488.242 674.766 488.242H675.125C675.667 488.242 675.977 488.388 676.055 488.68L677.094 493.148C677.109 493.227 677.172 493.521 677.281 494.031L677.523 495.148C677.586 494.768 677.706 494.24 677.883 493.562L677.992 493.148L679.141 488.539C679.161 488.435 679.234 488.359 679.359 488.312C679.49 488.266 679.669 488.242 679.898 488.242H680.43C680.659 488.242 680.836 488.266 680.961 488.312C681.091 488.359 681.167 488.435 681.188 488.539L682.289 493.148C682.424 493.721 682.583 494.419 682.766 495.242C682.786 495.148 682.859 494.82 682.984 494.258L683.234 493.148L684.312 488.68C684.391 488.388 684.701 488.242 685.242 488.242H685.398C685.685 488.242 685.898 488.276 686.039 488.344C686.185 488.406 686.258 488.495 686.258 488.609C686.258 488.646 686.255 488.682 686.25 488.719C686.245 488.75 686.24 488.784 686.234 488.82L683.969 497.734C683.943 497.828 683.859 497.901 683.719 497.953C683.578 498 683.406 498.023 683.203 498.023H682.188C681.984 498.023 681.812 498 681.672 497.953C681.531 497.901 681.451 497.828 681.43 497.734L680.289 492.93L680.07 491.984L679.828 492.93L678.648 497.734C678.622 497.828 678.539 497.901 678.398 497.953C678.258 498 678.086 498.023 677.883 498.023H676.883ZM687.914 498.039C687.633 498.039 687.422 498 687.281 497.922C687.146 497.844 687.078 497.732 687.078 497.586V488.695C687.078 488.388 687.357 488.234 687.914 488.234H688.398C688.685 488.234 688.893 488.273 689.023 488.352C689.159 488.43 689.227 488.544 689.227 488.695V497.586C689.227 497.888 688.951 498.039 688.398 498.039H687.914ZM693.695 498.023C693.138 498.023 692.859 497.878 692.859 497.586V490.094H690.656C690.51 490.094 690.404 490.039 690.336 489.93C690.273 489.82 690.242 489.643 690.242 489.398V488.977C690.242 488.732 690.273 488.555 690.336 488.445C690.404 488.336 690.51 488.281 690.656 488.281H697.227C697.372 488.281 697.477 488.336 697.539 488.445C697.607 488.555 697.641 488.732 697.641 488.977V489.398C697.641 489.643 697.607 489.82 697.539 489.93C697.477 490.039 697.372 490.094 697.227 490.094H695.016V497.586C695.016 497.878 694.737 498.023 694.18 498.023H693.695ZM702.945 498.117C701.383 498.117 700.229 497.711 699.484 496.898C698.745 496.086 698.375 494.823 698.375 493.109C698.375 489.812 699.922 488.164 703.016 488.164C703.438 488.164 703.875 488.206 704.328 488.289C704.781 488.372 705.159 488.49 705.461 488.641C705.768 488.786 705.922 488.951 705.922 489.133C705.922 489.263 705.87 489.435 705.766 489.648C705.661 489.857 705.536 490.042 705.391 490.203C705.25 490.365 705.125 490.445 705.016 490.445C704.99 490.445 704.919 490.419 704.805 490.367C704.555 490.263 704.292 490.177 704.016 490.109C703.745 490.036 703.398 490 702.977 490C702.159 490 701.552 490.26 701.156 490.781C700.766 491.297 700.57 492.078 700.57 493.125C700.57 494.172 700.768 494.961 701.164 495.492C701.56 496.023 702.154 496.289 702.945 496.289C703.357 496.289 703.714 496.247 704.016 496.164C704.323 496.081 704.622 495.974 704.914 495.844C704.93 495.839 704.977 495.82 705.055 495.789C705.133 495.753 705.19 495.734 705.227 495.734C705.362 495.734 705.492 495.815 705.617 495.977C705.742 496.133 705.844 496.312 705.922 496.516C706 496.714 706.039 496.857 706.039 496.945C706.039 497.201 705.867 497.417 705.523 497.594C705.185 497.771 704.773 497.904 704.289 497.992C703.81 498.076 703.362 498.117 702.945 498.117ZM708.359 498.023C707.807 498.023 707.531 497.878 707.531 497.586V488.695C707.531 488.544 707.596 488.432 707.727 488.359C707.862 488.281 708.073 488.242 708.359 488.242H708.852C709.138 488.242 709.346 488.281 709.477 488.359C709.612 488.432 709.68 488.544 709.68 488.695V492.125H713.43V488.695C713.43 488.544 713.497 488.432 713.633 488.359C713.768 488.281 713.979 488.242 714.266 488.242H714.75C715.307 488.242 715.586 488.393 715.586 488.695V497.586C715.586 497.878 715.307 498.023 714.75 498.023H714.266C713.708 498.023 713.43 497.878 713.43 497.586V493.961H709.68V497.586C709.68 497.878 709.404 498.023 708.852 498.023H708.359Z" fill="#FC1010"/>
</g>
</g>
<g id="user">
<g id="Rectangle 3" filter="url(#filter0_bd_0_1)">
<rect x="857" y="651" width="358" height="457" rx="62" fill="white" fill-opacity="0.83" shape-rendering="crispEdges"/>
</g>
<path id="Ellipse 4" d="M1074 711C1074 729.585 1057.19 745 1036 745C1014.81 745 998 729.585 998 711C998 692.415 1014.81 677 1036 677C1057.19 677 1074 692.415 1074 711Z" fill="white" stroke="#FC0000" stroke-width="4"/>
<rect id="Rectangle 6" x="961" y="754" width="150" height="130" rx="40" fill="white" stroke="#FC0000" stroke-width="4"/>
<g id="Rectangle 7" filter="url(#filter1_b_0_1)">
<rect x="916" y="800" width="241" height="92" fill="white"/>
</g>
<g id="Rectangle 8" filter="url(#filter2_i_0_1)">
<rect x="895" y="846" width="282" height="68" rx="34" fill="#D5D4D4"/>
</g>
<g id="Rectangle 9" filter="url(#filter3_i_0_1)">
<rect x="896" y="943" width="282" height="68" rx="34" fill="#D5D4D4"/>
</g>
</g>
<g id="password">
<rect id="Rectangle 10" x="37" y="699" width="554" height="181" rx="36" fill="url(#paint3_linear_0_1)"/>
<g id="Rectangle 11" filter="url(#filter4_i_0_1)">
<rect x="118" y="747" width="392" height="86" rx="34" fill="#D5D0D0"/>
</g>
<path id="*******" d="M191.946 800.748H187.11L192.57 787.878L192.336 787.722L178.842 795.366L177.594 791.388L191.946 786.24V786.084L180.792 780.858L184.458 776.88L193.272 784.602L193.584 784.446L196.002 771.498H200.838L195.3 784.446L195.534 784.602L209.106 776.802L210.354 780.78L196.002 786.084L195.924 786.24L207.156 791.388L203.412 795.366L194.598 787.722L194.286 787.878L191.946 800.748ZM231.479 800.748H226.643L232.103 787.878L231.869 787.722L218.375 795.366L217.127 791.388L231.479 786.24V786.084L220.325 780.858L223.991 776.88L232.805 784.602L233.117 784.446L235.535 771.498H240.371L234.833 784.446L235.067 784.602L248.639 776.802L249.887 780.78L235.535 786.084L235.457 786.24L246.689 791.388L242.945 795.366L234.131 787.722L233.819 787.878L231.479 800.748ZM271.012 800.748H266.176L271.636 787.878L271.402 787.722L257.908 795.366L256.66 791.388L271.012 786.24V786.084L259.858 780.858L263.524 776.88L272.338 784.602L272.65 784.446L275.068 771.498H279.904L274.366 784.446L274.6 784.602L288.172 776.802L289.42 780.78L275.068 786.084L274.99 786.24L286.222 791.388L282.478 795.366L273.664 787.722L273.352 787.878L271.012 800.748ZM310.545 800.748H305.709L311.169 787.878L310.935 787.722L297.441 795.366L296.193 791.388L310.545 786.24V786.084L299.391 780.858L303.057 776.88L311.871 784.602L312.183 784.446L314.601 771.498H319.437L313.899 784.446L314.133 784.602L327.705 776.802L328.953 780.78L314.601 786.084L314.523 786.24L325.755 791.388L322.011 795.366L313.197 787.722L312.885 787.878L310.545 800.748ZM350.079 800.748H345.243L350.703 787.878L350.469 787.722L336.975 795.366L335.727 791.388L350.079 786.24V786.084L338.925 780.858L342.591 776.88L351.405 784.602L351.717 784.446L354.135 771.498H358.971L353.433 784.446L353.667 784.602L367.239 776.802L368.487 780.78L354.135 786.084L354.057 786.24L365.289 791.388L361.545 795.366L352.731 787.722L352.419 787.878L350.079 800.748ZM389.612 800.748H384.776L390.236 787.878L390.002 787.722L376.508 795.366L375.26 791.388L389.612 786.24V786.084L378.458 780.858L382.124 776.88L390.938 784.602L391.25 784.446L393.668 771.498H398.504L392.966 784.446L393.2 784.602L406.772 776.802L408.02 780.78L393.668 786.084L393.59 786.24L404.822 791.388L401.078 795.366L392.264 787.722L391.952 787.878L389.612 800.748ZM429.145 800.748H424.309L429.769 787.878L429.535 787.722L416.041 795.366L414.793 791.388L429.145 786.24V786.084L417.991 780.858L421.657 776.88L430.471 784.602L430.783 784.446L433.201 771.498H438.037L432.499 784.446L432.733 784.602L446.305 776.802L447.553 780.78L433.201 786.084L433.123 786.24L444.355 791.388L440.611 795.366L431.797 787.722L431.485 787.878L429.145 800.748Z" fill="#444242"/>
</g>
<g id="card">
<g id="Rectangle 1" filter="url(#filter5_bd_0_1)">
<rect x="4" width="521" height="311" rx="35" fill="#0D0C0C" fill-opacity="0.47" shape-rendering="crispEdges"/>
</g>
<g id="Group 1">
<path id="Ellipse 1" d="M441.968 246C441.968 263.121 427.424 277 409.484 277C391.544 277 377 263.121 377 246C377 228.879 391.544 215 409.484 215C427.424 215 441.968 228.879 441.968 246Z" fill="#D70000"/>
<path id="Ellipse 2" d="M483 246C483 263.121 468.456 277 450.516 277C432.576 277 418.032 263.121 418.032 246C418.032 228.879 432.576 215 450.516 215C468.456 215 483 228.879 483 246Z" fill="#FFBA33"/>
</g>
<path id="Credit Card" d="M43.4941 60.1465C41.541 60.1465 40.099 59.6387 39.168 58.623C38.2435 57.6074 37.7812 56.0286 37.7812 53.8867C37.7812 49.7656 39.7148 47.7051 43.582 47.7051C44.1094 47.7051 44.6562 47.7572 45.2227 47.8613C45.7891 47.9655 46.2611 48.112 46.6387 48.3008C47.0228 48.4831 47.2148 48.6882 47.2148 48.916C47.2148 49.0788 47.1497 49.2936 47.0195 49.5605C46.8893 49.821 46.7331 50.0521 46.5508 50.2539C46.375 50.4557 46.2188 50.5566 46.082 50.5566C46.0495 50.5566 45.9616 50.5241 45.8184 50.459C45.5059 50.3288 45.1771 50.2214 44.832 50.1367C44.4935 50.0456 44.0605 50 43.5332 50C42.5111 50 41.7526 50.3255 41.2578 50.9766C40.7695 51.6211 40.5254 52.5977 40.5254 53.9062C40.5254 55.2148 40.7728 56.2012 41.2676 56.8652C41.7624 57.5293 42.5046 57.8613 43.4941 57.8613C44.0085 57.8613 44.4544 57.8092 44.832 57.7051C45.2161 57.6009 45.5905 57.4674 45.9551 57.3047C45.9746 57.2982 46.0332 57.2754 46.1309 57.2363C46.2285 57.1908 46.3001 57.168 46.3457 57.168C46.515 57.168 46.6777 57.2689 46.834 57.4707C46.9902 57.666 47.1172 57.8906 47.2148 58.1445C47.3125 58.3919 47.3613 58.571 47.3613 58.6816C47.3613 59.0007 47.1465 59.2708 46.7168 59.4922C46.2936 59.7135 45.7793 59.8796 45.1738 59.9902C44.5749 60.0944 44.015 60.1465 43.4941 60.1465ZM49.8809 60.0293C49.1908 60.0293 48.8457 59.847 48.8457 59.4824V53.9746C48.8457 53.1413 48.7904 52.4479 48.6797 51.8945C48.6471 51.7188 48.6309 51.5951 48.6309 51.5234C48.6309 51.3932 48.7513 51.2891 48.9922 51.2109C49.2396 51.1263 49.5163 51.0645 49.8223 51.0254C50.1348 50.9863 50.3854 50.9668 50.5742 50.9668C50.776 50.9668 50.916 51.0417 50.9941 51.1914C51.0788 51.3411 51.1536 51.5592 51.2188 51.8457L51.2773 52.0996C51.4987 51.696 51.7526 51.377 52.0391 51.1426C52.332 50.9017 52.7064 50.7812 53.1621 50.7812C53.5397 50.7812 53.8001 50.8789 53.9434 51.0742C54.0866 51.263 54.1582 51.4779 54.1582 51.7188C54.1582 51.849 54.1354 52.0345 54.0898 52.2754C54.0443 52.5098 53.9792 52.7181 53.8945 52.9004C53.8099 53.0827 53.7155 53.1738 53.6113 53.1738C53.5397 53.1738 53.4323 53.1543 53.2891 53.1152C53.0938 53.0632 52.9277 53.0371 52.791 53.0371C52.472 53.0371 52.1921 53.1283 51.9512 53.3105C51.7168 53.4863 51.5378 53.6849 51.4141 53.9062V59.4824C51.4141 59.847 51.0625 60.0293 50.3594 60.0293H49.8809ZM59.373 60.1465C57.8496 60.1465 56.7135 59.7396 55.9648 58.9258C55.2161 58.1055 54.8418 56.9694 54.8418 55.5176C54.8418 53.8835 55.2161 52.6855 55.9648 51.9238C56.7135 51.1621 57.7454 50.7812 59.0605 50.7812C59.9329 50.7812 60.6458 50.9798 61.1992 51.377C61.7591 51.7741 62.166 52.3079 62.4199 52.9785C62.6803 53.6491 62.8105 54.4076 62.8105 55.2539C62.8105 55.3516 62.752 55.4818 62.6348 55.6445C62.5241 55.8073 62.3971 55.9538 62.2539 56.084C62.1107 56.2142 62 56.2793 61.9219 56.2793H57.498C57.5566 56.9434 57.752 57.4154 58.084 57.6953C58.4225 57.9688 58.8913 58.1055 59.4902 58.1055C59.8158 58.1055 60.1087 58.0697 60.3691 57.998C60.6361 57.9199 60.9193 57.819 61.2188 57.6953C61.401 57.6107 61.5247 57.5684 61.5898 57.5684C61.707 57.5684 61.834 57.653 61.9707 57.8223C62.1139 57.985 62.2344 58.1738 62.332 58.3887C62.4362 58.6035 62.4883 58.7695 62.4883 58.8867C62.4883 59.1536 62.306 59.3815 61.9414 59.5703C61.5833 59.7591 61.1569 59.9023 60.6621 60C60.1738 60.0977 59.7441 60.1465 59.373 60.1465ZM60.3105 54.5703C60.3105 54.0365 60.2064 53.61 59.998 53.291C59.7897 52.9655 59.4772 52.8027 59.0605 52.8027C58.2012 52.8027 57.6803 53.3919 57.498 54.5703H60.3105ZM67.4688 60.1465C66.8372 60.1465 66.2741 59.9642 65.7793 59.5996C65.291 59.2285 64.9069 58.6914 64.627 57.9883C64.3535 57.2786 64.2168 56.4323 64.2168 55.4492C64.2168 54.5052 64.36 53.6816 64.6465 52.9785C64.9329 52.2754 65.3496 51.735 65.8965 51.3574C66.4499 50.9733 67.1107 50.7812 67.8789 50.7812C68.569 50.7812 69.1582 50.9603 69.6465 51.3184V47.4707C69.6465 47.0931 69.9948 46.9043 70.6914 46.9043H71.1797C71.5378 46.9043 71.7982 46.9531 71.9609 47.0508C72.1302 47.1419 72.2148 47.2819 72.2148 47.4707V56.9336C72.2148 57.474 72.2279 57.8939 72.2539 58.1934C72.2865 58.4928 72.3288 58.7891 72.3809 59.082C72.4134 59.2578 72.4297 59.3815 72.4297 59.4531C72.4297 59.5833 72.306 59.6908 72.0586 59.7754C71.8177 59.86 71.541 59.9219 71.2285 59.9609C70.9225 60 70.6751 60.0195 70.4863 60.0195C70.2845 60.0195 70.1413 59.9414 70.0566 59.7852C69.9785 59.6289 69.9069 59.401 69.8418 59.1016L69.7832 58.8379C69.5749 59.222 69.2656 59.5378 68.8555 59.7852C68.4453 60.026 67.9831 60.1465 67.4688 60.1465ZM68.2305 58.0371C68.7773 58.0371 69.2493 57.6953 69.6465 57.0117V53.1348C69.2363 52.9134 68.8327 52.8027 68.4355 52.8027C67.3548 52.8027 66.8145 53.6849 66.8145 55.4492C66.8145 57.1745 67.2865 58.0371 68.2305 58.0371ZM75.3789 49.4238C75.0143 49.4238 74.7474 49.3783 74.5781 49.2871C74.4154 49.196 74.334 49.056 74.334 48.8672V47.4707C74.334 47.2819 74.4186 47.1419 74.5879 47.0508C74.7572 46.9531 75.0208 46.9043 75.3789 46.9043H75.8574C76.2155 46.9043 76.4792 46.9531 76.6484 47.0508C76.8177 47.1419 76.9023 47.2819 76.9023 47.4707V48.8672C76.9023 49.056 76.8177 49.196 76.6484 49.2871C76.4857 49.3783 76.222 49.4238 75.8574 49.4238H75.3789ZM75.3789 60.0293C74.6823 60.0293 74.334 59.847 74.334 59.4824V51.4355C74.334 51.2533 74.4186 51.1165 74.5879 51.0254C74.7572 50.9342 75.0208 50.8887 75.3789 50.8887H75.8574C76.2155 50.8887 76.4792 50.9342 76.6484 51.0254C76.8177 51.1165 76.9023 51.2533 76.9023 51.4355V59.4824C76.9023 59.847 76.554 60.0293 75.8574 60.0293H75.3789ZM81.7949 60.1465C80.9681 60.1465 80.3366 59.9154 79.9004 59.4531C79.4707 58.9844 79.2559 58.2747 79.2559 57.3242V52.9492H78.9824C78.8001 52.9492 78.6667 52.8809 78.582 52.7441C78.5039 52.6074 78.4648 52.3861 78.4648 52.0801V51.7871C78.4648 51.4811 78.5039 51.2598 78.582 51.123C78.6667 50.9863 78.8001 50.918 78.9824 50.918H79.2559L79.4805 49.2676C79.5326 48.903 79.8451 48.7207 80.418 48.7207H80.9648C81.2643 48.7207 81.4824 48.7663 81.6191 48.8574C81.7624 48.9486 81.834 49.0853 81.834 49.2676V50.918H82.6836C82.8659 50.918 82.9961 50.9863 83.0742 51.123C83.1589 51.2598 83.2012 51.4811 83.2012 51.7871V52.0801C83.2012 52.3861 83.1589 52.6074 83.0742 52.7441C82.9961 52.8809 82.8659 52.9492 82.6836 52.9492H81.834V57.3535C81.834 57.6204 81.8796 57.8125 81.9707 57.9297C82.0684 58.0469 82.2279 58.1055 82.4492 58.1055C82.5143 58.1055 82.6022 58.0957 82.7129 58.0762C82.8236 58.0501 82.8919 58.0371 82.918 58.0371C83.0221 58.0371 83.1133 58.125 83.1914 58.3008C83.276 58.4701 83.3411 58.6589 83.3867 58.8672C83.4388 59.0755 83.4648 59.2155 83.4648 59.2871C83.4648 59.86 82.9082 60.1465 81.7949 60.1465ZM94.5488 60.1465C92.5957 60.1465 91.1536 59.6387 90.2227 58.623C89.2982 57.6074 88.8359 56.0286 88.8359 53.8867C88.8359 49.7656 90.7695 47.7051 94.6367 47.7051C95.1641 47.7051 95.7109 47.7572 96.2773 47.8613C96.8438 47.9655 97.3158 48.112 97.6934 48.3008C98.0775 48.4831 98.2695 48.6882 98.2695 48.916C98.2695 49.0788 98.2044 49.2936 98.0742 49.5605C97.944 49.821 97.7878 50.0521 97.6055 50.2539C97.4297 50.4557 97.2734 50.5566 97.1367 50.5566C97.1042 50.5566 97.0163 50.5241 96.873 50.459C96.5605 50.3288 96.2318 50.2214 95.8867 50.1367C95.5482 50.0456 95.1152 50 94.5879 50C93.5658 50 92.8073 50.3255 92.3125 50.9766C91.8242 51.6211 91.5801 52.5977 91.5801 53.9062C91.5801 55.2148 91.8275 56.2012 92.3223 56.8652C92.8171 57.5293 93.5592 57.8613 94.5488 57.8613C95.0632 57.8613 95.5091 57.8092 95.8867 57.7051C96.2708 57.6009 96.6452 57.4674 97.0098 57.3047C97.0293 57.2982 97.0879 57.2754 97.1855 57.2363C97.2832 57.1908 97.3548 57.168 97.4004 57.168C97.5697 57.168 97.7324 57.2689 97.8887 57.4707C98.0449 57.666 98.1719 57.8906 98.2695 58.1445C98.3672 58.3919 98.416 58.571 98.416 58.6816C98.416 59.0007 98.2012 59.2708 97.7715 59.4922C97.3483 59.7135 96.834 59.8796 96.2285 59.9902C95.6296 60.0944 95.0697 60.1465 94.5488 60.1465ZM102.117 60.1465C101.232 60.1465 100.581 59.9154 100.164 59.4531C99.7539 58.9844 99.5488 58.3659 99.5488 57.5977C99.5488 57.0182 99.6693 56.4974 99.9102 56.0352C100.151 55.5664 100.639 55.1725 101.375 54.8535C102.111 54.5345 103.162 54.375 104.529 54.375V53.7988C104.529 53.4603 104.422 53.2096 104.207 53.0469C103.992 52.8841 103.65 52.8027 103.182 52.8027C102.791 52.8027 102.456 52.8451 102.176 52.9297C101.896 53.0078 101.593 53.1152 101.268 53.252C101.098 53.3301 100.994 53.3691 100.955 53.3691C100.838 53.3691 100.708 53.2812 100.564 53.1055C100.428 52.9297 100.307 52.7279 100.203 52.5C100.099 52.2721 100.047 52.0996 100.047 51.9824C100.047 51.7806 100.19 51.5885 100.477 51.4062C100.77 51.2174 101.17 51.0677 101.678 50.957C102.186 50.8398 102.749 50.7812 103.367 50.7812C104.669 50.7812 105.617 51.0417 106.209 51.5625C106.801 52.0768 107.098 52.7832 107.098 53.6816V56.9336C107.098 57.474 107.111 57.8939 107.137 58.1934C107.169 58.4928 107.212 58.7891 107.264 59.082C107.296 59.2578 107.312 59.3815 107.312 59.4531C107.312 59.5833 107.189 59.6908 106.941 59.7754C106.701 59.86 106.424 59.9219 106.111 59.9609C105.799 60 105.548 60.0195 105.359 60.0195C105.158 60.0195 105.011 59.9349 104.92 59.7656C104.835 59.5898 104.767 59.3522 104.715 59.0527C104.708 59.0137 104.702 58.9746 104.695 58.9355C104.689 58.8965 104.679 58.8574 104.666 58.8184C104.601 58.9421 104.461 59.1081 104.246 59.3164C104.038 59.5247 103.751 59.7168 103.387 59.8926C103.022 60.0618 102.599 60.1465 102.117 60.1465ZM102.967 58.1055C103.292 58.1055 103.598 58.0046 103.885 57.8027C104.171 57.5944 104.386 57.3307 104.529 57.0117V56.0547C102.908 56.0547 102.098 56.4811 102.098 57.334C102.098 57.5618 102.173 57.7474 102.322 57.8906C102.479 58.0339 102.693 58.1055 102.967 58.1055ZM110.408 60.0293C109.718 60.0293 109.373 59.847 109.373 59.4824V53.9746C109.373 53.1413 109.318 52.4479 109.207 51.8945C109.174 51.7188 109.158 51.5951 109.158 51.5234C109.158 51.3932 109.279 51.2891 109.52 51.2109C109.767 51.1263 110.044 51.0645 110.35 51.0254C110.662 50.9863 110.913 50.9668 111.102 50.9668C111.303 50.9668 111.443 51.0417 111.521 51.1914C111.606 51.3411 111.681 51.5592 111.746 51.8457L111.805 52.0996C112.026 51.696 112.28 51.377 112.566 51.1426C112.859 50.9017 113.234 50.7812 113.689 50.7812C114.067 50.7812 114.327 50.8789 114.471 51.0742C114.614 51.263 114.686 51.4779 114.686 51.7188C114.686 51.849 114.663 52.0345 114.617 52.2754C114.572 52.5098 114.507 52.7181 114.422 52.9004C114.337 53.0827 114.243 53.1738 114.139 53.1738C114.067 53.1738 113.96 53.1543 113.816 53.1152C113.621 53.0632 113.455 53.0371 113.318 53.0371C112.999 53.0371 112.719 53.1283 112.479 53.3105C112.244 53.4863 112.065 53.6849 111.941 53.9062V59.4824C111.941 59.847 111.59 60.0293 110.887 60.0293H110.408ZM118.621 60.1465C117.99 60.1465 117.426 59.9642 116.932 59.5996C116.443 59.2285 116.059 58.6914 115.779 57.9883C115.506 57.2786 115.369 56.4323 115.369 55.4492C115.369 54.5052 115.512 53.6816 115.799 52.9785C116.085 52.2754 116.502 51.735 117.049 51.3574C117.602 50.9733 118.263 50.7812 119.031 50.7812C119.721 50.7812 120.311 50.9603 120.799 51.3184V47.4707C120.799 47.0931 121.147 46.9043 121.844 46.9043H122.332C122.69 46.9043 122.951 46.9531 123.113 47.0508C123.283 47.1419 123.367 47.2819 123.367 47.4707V56.9336C123.367 57.474 123.38 57.8939 123.406 58.1934C123.439 58.4928 123.481 58.7891 123.533 59.082C123.566 59.2578 123.582 59.3815 123.582 59.4531C123.582 59.5833 123.458 59.6908 123.211 59.7754C122.97 59.86 122.693 59.9219 122.381 59.9609C122.075 60 121.827 60.0195 121.639 60.0195C121.437 60.0195 121.294 59.9414 121.209 59.7852C121.131 59.6289 121.059 59.401 120.994 59.1016L120.936 58.8379C120.727 59.222 120.418 59.5378 120.008 59.7852C119.598 60.026 119.135 60.1465 118.621 60.1465ZM119.383 58.0371C119.93 58.0371 120.402 57.6953 120.799 57.0117V53.1348C120.389 52.9134 119.985 52.8027 119.588 52.8027C118.507 52.8027 117.967 53.6849 117.967 55.4492C117.967 57.1745 118.439 58.0371 119.383 58.0371Z" fill="#A29E9E"/>
<rect id="Rectangle 4" x="37" y="99" width="42" height="42" fill="#848181"/>
<path id="number" d="M41.6387 178.146C40.7858 178.146 40.0501 177.899 39.4316 177.404C38.8132 176.91 38.3379 176.197 38.0059 175.266C37.6803 174.328 37.5176 173.212 37.5176 171.916C37.5176 170.627 37.6803 169.517 38.0059 168.586C38.3379 167.655 38.8132 166.942 39.4316 166.447C40.0501 165.952 40.7858 165.705 41.6387 165.705C42.4915 165.705 43.224 165.952 43.8359 166.447C44.4544 166.942 44.9264 167.655 45.252 168.586C45.584 169.517 45.75 170.627 45.75 171.916C45.75 173.212 45.584 174.328 45.252 175.266C44.9264 176.197 44.4544 176.91 43.8359 177.404C43.224 177.899 42.4915 178.146 41.6387 178.146ZM41.6387 176.105C42.127 176.105 42.5013 175.751 42.7617 175.041C43.0221 174.331 43.1523 173.29 43.1523 171.916C43.1523 170.549 43.0221 169.51 42.7617 168.801C42.5013 168.091 42.127 167.736 41.6387 167.736C41.1504 167.736 40.776 168.091 40.5156 168.801C40.2552 169.51 40.125 170.549 40.125 171.916C40.125 173.29 40.2552 174.331 40.5156 175.041C40.776 175.751 41.1504 176.105 41.6387 176.105ZM50.9355 178.146C50.0827 178.146 49.347 177.899 48.7285 177.404C48.11 176.91 47.6348 176.197 47.3027 175.266C46.9772 174.328 46.8145 173.212 46.8145 171.916C46.8145 170.627 46.9772 169.517 47.3027 168.586C47.6348 167.655 48.11 166.942 48.7285 166.447C49.347 165.952 50.0827 165.705 50.9355 165.705C51.7884 165.705 52.5208 165.952 53.1328 166.447C53.7513 166.942 54.2233 167.655 54.5488 168.586C54.8809 169.517 55.0469 170.627 55.0469 171.916C55.0469 173.212 54.8809 174.328 54.5488 175.266C54.2233 176.197 53.7513 176.91 53.1328 177.404C52.5208 177.899 51.7884 178.146 50.9355 178.146ZM50.9355 176.105C51.4238 176.105 51.7982 175.751 52.0586 175.041C52.319 174.331 52.4492 173.29 52.4492 171.916C52.4492 170.549 52.319 169.51 52.0586 168.801C51.7982 168.091 51.4238 167.736 50.9355 167.736C50.4473 167.736 50.0729 168.091 49.8125 168.801C49.5521 169.51 49.4219 170.549 49.4219 171.916C49.4219 173.29 49.5521 174.331 49.8125 175.041C50.0729 175.751 50.4473 176.105 50.9355 176.105ZM60.2324 178.146C59.3796 178.146 58.6439 177.899 58.0254 177.404C57.4069 176.91 56.9316 176.197 56.5996 175.266C56.2741 174.328 56.1113 173.212 56.1113 171.916C56.1113 170.627 56.2741 169.517 56.5996 168.586C56.9316 167.655 57.4069 166.942 58.0254 166.447C58.6439 165.952 59.3796 165.705 60.2324 165.705C61.0853 165.705 61.8177 165.952 62.4297 166.447C63.0482 166.942 63.5202 167.655 63.8457 168.586C64.1777 169.517 64.3438 170.627 64.3438 171.916C64.3438 173.212 64.1777 174.328 63.8457 175.266C63.5202 176.197 63.0482 176.91 62.4297 177.404C61.8177 177.899 61.0853 178.146 60.2324 178.146ZM60.2324 176.105C60.7207 176.105 61.0951 175.751 61.3555 175.041C61.6159 174.331 61.7461 173.29 61.7461 171.916C61.7461 170.549 61.6159 169.51 61.3555 168.801C61.0951 168.091 60.7207 167.736 60.2324 167.736C59.7441 167.736 59.3698 168.091 59.1094 168.801C58.849 169.51 58.7188 170.549 58.7188 171.916C58.7188 173.29 58.849 174.331 59.1094 175.041C59.3698 175.751 59.7441 176.105 60.2324 176.105ZM69.5293 178.146C68.6764 178.146 67.9408 177.899 67.3223 177.404C66.7038 176.91 66.2285 176.197 65.8965 175.266C65.571 174.328 65.4082 173.212 65.4082 171.916C65.4082 170.627 65.571 169.517 65.8965 168.586C66.2285 167.655 66.7038 166.942 67.3223 166.447C67.9408 165.952 68.6764 165.705 69.5293 165.705C70.3822 165.705 71.1146 165.952 71.7266 166.447C72.3451 166.942 72.8171 167.655 73.1426 168.586C73.4746 169.517 73.6406 170.627 73.6406 171.916C73.6406 173.212 73.4746 174.328 73.1426 175.266C72.8171 176.197 72.3451 176.91 71.7266 177.404C71.1146 177.899 70.3822 178.146 69.5293 178.146ZM69.5293 176.105C70.0176 176.105 70.3919 175.751 70.6523 175.041C70.9128 174.331 71.043 173.29 71.043 171.916C71.043 170.549 70.9128 169.51 70.6523 168.801C70.3919 168.091 70.0176 167.736 69.5293 167.736C69.041 167.736 68.6667 168.091 68.4062 168.801C68.1458 169.51 68.0156 170.549 68.0156 171.916C68.0156 173.29 68.1458 174.331 68.4062 175.041C68.6667 175.751 69.041 176.105 69.5293 176.105ZM124.803 178.146C123.95 178.146 123.214 177.899 122.596 177.404C121.977 176.91 121.502 176.197 121.17 175.266C120.844 174.328 120.682 173.212 120.682 171.916C120.682 170.627 120.844 169.517 121.17 168.586C121.502 167.655 121.977 166.942 122.596 166.447C123.214 165.952 123.95 165.705 124.803 165.705C125.656 165.705 126.388 165.952 127 166.447C127.618 166.942 128.09 167.655 128.416 168.586C128.748 169.517 128.914 170.627 128.914 171.916C128.914 173.212 128.748 174.328 128.416 175.266C128.09 176.197 127.618 176.91 127 177.404C126.388 177.899 125.656 178.146 124.803 178.146ZM124.803 176.105C125.291 176.105 125.665 175.751 125.926 175.041C126.186 174.331 126.316 173.29 126.316 171.916C126.316 170.549 126.186 169.51 125.926 168.801C125.665 168.091 125.291 167.736 124.803 167.736C124.314 167.736 123.94 168.091 123.68 168.801C123.419 169.51 123.289 170.549 123.289 171.916C123.289 173.29 123.419 174.331 123.68 175.041C123.94 175.751 124.314 176.105 124.803 176.105ZM134.1 178.146C133.247 178.146 132.511 177.899 131.893 177.404C131.274 176.91 130.799 176.197 130.467 175.266C130.141 174.328 129.979 173.212 129.979 171.916C129.979 170.627 130.141 169.517 130.467 168.586C130.799 167.655 131.274 166.942 131.893 166.447C132.511 165.952 133.247 165.705 134.1 165.705C134.952 165.705 135.685 165.952 136.297 166.447C136.915 166.942 137.387 167.655 137.713 168.586C138.045 169.517 138.211 170.627 138.211 171.916C138.211 173.212 138.045 174.328 137.713 175.266C137.387 176.197 136.915 176.91 136.297 177.404C135.685 177.899 134.952 178.146 134.1 178.146ZM134.1 176.105C134.588 176.105 134.962 175.751 135.223 175.041C135.483 174.331 135.613 173.29 135.613 171.916C135.613 170.549 135.483 169.51 135.223 168.801C134.962 168.091 134.588 167.736 134.1 167.736C133.611 167.736 133.237 168.091 132.977 168.801C132.716 169.51 132.586 170.549 132.586 171.916C132.586 173.29 132.716 174.331 132.977 175.041C133.237 175.751 133.611 176.105 134.1 176.105ZM143.396 178.146C142.544 178.146 141.808 177.899 141.189 177.404C140.571 176.91 140.096 176.197 139.764 175.266C139.438 174.328 139.275 173.212 139.275 171.916C139.275 170.627 139.438 169.517 139.764 168.586C140.096 167.655 140.571 166.942 141.189 166.447C141.808 165.952 142.544 165.705 143.396 165.705C144.249 165.705 144.982 165.952 145.594 166.447C146.212 166.942 146.684 167.655 147.01 168.586C147.342 169.517 147.508 170.627 147.508 171.916C147.508 173.212 147.342 174.328 147.01 175.266C146.684 176.197 146.212 176.91 145.594 177.404C144.982 177.899 144.249 178.146 143.396 178.146ZM143.396 176.105C143.885 176.105 144.259 175.751 144.52 175.041C144.78 174.331 144.91 173.29 144.91 171.916C144.91 170.549 144.78 169.51 144.52 168.801C144.259 168.091 143.885 167.736 143.396 167.736C142.908 167.736 142.534 168.091 142.273 168.801C142.013 169.51 141.883 170.549 141.883 171.916C141.883 173.29 142.013 174.331 142.273 175.041C142.534 175.751 142.908 176.105 143.396 176.105ZM152.693 178.146C151.84 178.146 151.105 177.899 150.486 177.404C149.868 176.91 149.393 176.197 149.061 175.266C148.735 174.328 148.572 173.212 148.572 171.916C148.572 170.627 148.735 169.517 149.061 168.586C149.393 167.655 149.868 166.942 150.486 166.447C151.105 165.952 151.84 165.705 152.693 165.705C153.546 165.705 154.279 165.952 154.891 166.447C155.509 166.942 155.981 167.655 156.307 168.586C156.639 169.517 156.805 170.627 156.805 171.916C156.805 173.212 156.639 174.328 156.307 175.266C155.981 176.197 155.509 176.91 154.891 177.404C154.279 177.899 153.546 178.146 152.693 178.146ZM152.693 176.105C153.182 176.105 153.556 175.751 153.816 175.041C154.077 174.331 154.207 173.29 154.207 171.916C154.207 170.549 154.077 169.51 153.816 168.801C153.556 168.091 153.182 167.736 152.693 167.736C152.205 167.736 151.831 168.091 151.57 168.801C151.31 169.51 151.18 170.549 151.18 171.916C151.18 173.29 151.31 174.331 151.57 175.041C151.831 175.751 152.205 176.105 152.693 176.105ZM207.967 178.146C207.114 178.146 206.378 177.899 205.76 177.404C205.141 176.91 204.666 176.197 204.334 175.266C204.008 174.328 203.846 173.212 203.846 171.916C203.846 170.627 204.008 169.517 204.334 168.586C204.666 167.655 205.141 166.942 205.76 166.447C206.378 165.952 207.114 165.705 207.967 165.705C208.82 165.705 209.552 165.952 210.164 166.447C210.783 166.942 211.255 167.655 211.58 168.586C211.912 169.517 212.078 170.627 212.078 171.916C212.078 173.212 211.912 174.328 211.58 175.266C211.255 176.197 210.783 176.91 210.164 177.404C209.552 177.899 208.82 178.146 207.967 178.146ZM207.967 176.105C208.455 176.105 208.829 175.751 209.09 175.041C209.35 174.331 209.48 173.29 209.48 171.916C209.48 170.549 209.35 169.51 209.09 168.801C208.829 168.091 208.455 167.736 207.967 167.736C207.479 167.736 207.104 168.091 206.844 168.801C206.583 169.51 206.453 170.549 206.453 171.916C206.453 173.29 206.583 174.331 206.844 175.041C207.104 175.751 207.479 176.105 207.967 176.105ZM217.264 178.146C216.411 178.146 215.675 177.899 215.057 177.404C214.438 176.91 213.963 176.197 213.631 175.266C213.305 174.328 213.143 173.212 213.143 171.916C213.143 170.627 213.305 169.517 213.631 168.586C213.963 167.655 214.438 166.942 215.057 166.447C215.675 165.952 216.411 165.705 217.264 165.705C218.117 165.705 218.849 165.952 219.461 166.447C220.079 166.942 220.551 167.655 220.877 168.586C221.209 169.517 221.375 170.627 221.375 171.916C221.375 173.212 221.209 174.328 220.877 175.266C220.551 176.197 220.079 176.91 219.461 177.404C218.849 177.899 218.117 178.146 217.264 178.146ZM217.264 176.105C217.752 176.105 218.126 175.751 218.387 175.041C218.647 174.331 218.777 173.29 218.777 171.916C218.777 170.549 218.647 169.51 218.387 168.801C218.126 168.091 217.752 167.736 217.264 167.736C216.775 167.736 216.401 168.091 216.141 168.801C215.88 169.51 215.75 170.549 215.75 171.916C215.75 173.29 215.88 174.331 216.141 175.041C216.401 175.751 216.775 176.105 217.264 176.105ZM226.561 178.146C225.708 178.146 224.972 177.899 224.354 177.404C223.735 176.91 223.26 176.197 222.928 175.266C222.602 174.328 222.439 173.212 222.439 171.916C222.439 170.627 222.602 169.517 222.928 168.586C223.26 167.655 223.735 166.942 224.354 166.447C224.972 165.952 225.708 165.705 226.561 165.705C227.413 165.705 228.146 165.952 228.758 166.447C229.376 166.942 229.848 167.655 230.174 168.586C230.506 169.517 230.672 170.627 230.672 171.916C230.672 173.212 230.506 174.328 230.174 175.266C229.848 176.197 229.376 176.91 228.758 177.404C228.146 177.899 227.413 178.146 226.561 178.146ZM226.561 176.105C227.049 176.105 227.423 175.751 227.684 175.041C227.944 174.331 228.074 173.29 228.074 171.916C228.074 170.549 227.944 169.51 227.684 168.801C227.423 168.091 227.049 167.736 226.561 167.736C226.072 167.736 225.698 168.091 225.438 168.801C225.177 169.51 225.047 170.549 225.047 171.916C225.047 173.29 225.177 174.331 225.438 175.041C225.698 175.751 226.072 176.105 226.561 176.105ZM235.857 178.146C235.005 178.146 234.269 177.899 233.65 177.404C233.032 176.91 232.557 176.197 232.225 175.266C231.899 174.328 231.736 173.212 231.736 171.916C231.736 170.627 231.899 169.517 232.225 168.586C232.557 167.655 233.032 166.942 233.65 166.447C234.269 165.952 235.005 165.705 235.857 165.705C236.71 165.705 237.443 165.952 238.055 166.447C238.673 166.942 239.145 167.655 239.471 168.586C239.803 169.517 239.969 170.627 239.969 171.916C239.969 173.212 239.803 174.328 239.471 175.266C239.145 176.197 238.673 176.91 238.055 177.404C237.443 177.899 236.71 178.146 235.857 178.146ZM235.857 176.105C236.346 176.105 236.72 175.751 236.98 175.041C237.241 174.331 237.371 173.29 237.371 171.916C237.371 170.549 237.241 169.51 236.98 168.801C236.72 168.091 236.346 167.736 235.857 167.736C235.369 167.736 234.995 168.091 234.734 168.801C234.474 169.51 234.344 170.549 234.344 171.916C234.344 173.29 234.474 174.331 234.734 175.041C234.995 175.751 235.369 176.105 235.857 176.105ZM291.131 178.146C290.278 178.146 289.542 177.899 288.924 177.404C288.305 176.91 287.83 176.197 287.498 175.266C287.173 174.328 287.01 173.212 287.01 171.916C287.01 170.627 287.173 169.517 287.498 168.586C287.83 167.655 288.305 166.942 288.924 166.447C289.542 165.952 290.278 165.705 291.131 165.705C291.984 165.705 292.716 165.952 293.328 166.447C293.947 166.942 294.419 167.655 294.744 168.586C295.076 169.517 295.242 170.627 295.242 171.916C295.242 173.212 295.076 174.328 294.744 175.266C294.419 176.197 293.947 176.91 293.328 177.404C292.716 177.899 291.984 178.146 291.131 178.146ZM291.131 176.105C291.619 176.105 291.993 175.751 292.254 175.041C292.514 174.331 292.645 173.29 292.645 171.916C292.645 170.549 292.514 169.51 292.254 168.801C291.993 168.091 291.619 167.736 291.131 167.736C290.643 167.736 290.268 168.091 290.008 168.801C289.747 169.51 289.617 170.549 289.617 171.916C289.617 173.29 289.747 174.331 290.008 175.041C290.268 175.751 290.643 176.105 291.131 176.105ZM300.428 178.146C299.575 178.146 298.839 177.899 298.221 177.404C297.602 176.91 297.127 176.197 296.795 175.266C296.469 174.328 296.307 173.212 296.307 171.916C296.307 170.627 296.469 169.517 296.795 168.586C297.127 167.655 297.602 166.942 298.221 166.447C298.839 165.952 299.575 165.705 300.428 165.705C301.281 165.705 302.013 165.952 302.625 166.447C303.243 166.942 303.715 167.655 304.041 168.586C304.373 169.517 304.539 170.627 304.539 171.916C304.539 173.212 304.373 174.328 304.041 175.266C303.715 176.197 303.243 176.91 302.625 177.404C302.013 177.899 301.281 178.146 300.428 178.146ZM300.428 176.105C300.916 176.105 301.29 175.751 301.551 175.041C301.811 174.331 301.941 173.29 301.941 171.916C301.941 170.549 301.811 169.51 301.551 168.801C301.29 168.091 300.916 167.736 300.428 167.736C299.939 167.736 299.565 168.091 299.305 168.801C299.044 169.51 298.914 170.549 298.914 171.916C298.914 173.29 299.044 174.331 299.305 175.041C299.565 175.751 299.939 176.105 300.428 176.105ZM309.725 178.146C308.872 178.146 308.136 177.899 307.518 177.404C306.899 176.91 306.424 176.197 306.092 175.266C305.766 174.328 305.604 173.212 305.604 171.916C305.604 170.627 305.766 169.517 306.092 168.586C306.424 167.655 306.899 166.942 307.518 166.447C308.136 165.952 308.872 165.705 309.725 165.705C310.577 165.705 311.31 165.952 311.922 166.447C312.54 166.942 313.012 167.655 313.338 168.586C313.67 169.517 313.836 170.627 313.836 171.916C313.836 173.212 313.67 174.328 313.338 175.266C313.012 176.197 312.54 176.91 311.922 177.404C311.31 177.899 310.577 178.146 309.725 178.146ZM309.725 176.105C310.213 176.105 310.587 175.751 310.848 175.041C311.108 174.331 311.238 173.29 311.238 171.916C311.238 170.549 311.108 169.51 310.848 168.801C310.587 168.091 310.213 167.736 309.725 167.736C309.236 167.736 308.862 168.091 308.602 168.801C308.341 169.51 308.211 170.549 308.211 171.916C308.211 173.29 308.341 174.331 308.602 175.041C308.862 175.751 309.236 176.105 309.725 176.105ZM319.021 178.146C318.169 178.146 317.433 177.899 316.814 177.404C316.196 176.91 315.721 176.197 315.389 175.266C315.063 174.328 314.9 173.212 314.9 171.916C314.9 170.627 315.063 169.517 315.389 168.586C315.721 167.655 316.196 166.942 316.814 166.447C317.433 165.952 318.169 165.705 319.021 165.705C319.874 165.705 320.607 165.952 321.219 166.447C321.837 166.942 322.309 167.655 322.635 168.586C322.967 169.517 323.133 170.627 323.133 171.916C323.133 173.212 322.967 174.328 322.635 175.266C322.309 176.197 321.837 176.91 321.219 177.404C320.607 177.899 319.874 178.146 319.021 178.146ZM319.021 176.105C319.51 176.105 319.884 175.751 320.145 175.041C320.405 174.331 320.535 173.29 320.535 171.916C320.535 170.549 320.405 169.51 320.145 168.801C319.884 168.091 319.51 167.736 319.021 167.736C318.533 167.736 318.159 168.091 317.898 168.801C317.638 169.51 317.508 170.549 317.508 171.916C317.508 173.29 317.638 174.331 317.898 175.041C318.159 175.751 318.533 176.105 319.021 176.105Z" fill="white"/>
<path id="CARDHOLDER" d="M43.4941 254.146C41.541 254.146 40.099 253.639 39.168 252.623C38.2435 251.607 37.7812 250.029 37.7812 247.887C37.7812 243.766 39.7148 241.705 43.582 241.705C44.1094 241.705 44.6562 241.757 45.2227 241.861C45.7891 241.965 46.2611 242.112 46.6387 242.301C47.0228 242.483 47.2148 242.688 47.2148 242.916C47.2148 243.079 47.1497 243.294 47.0195 243.561C46.8893 243.821 46.7331 244.052 46.5508 244.254C46.375 244.456 46.2188 244.557 46.082 244.557C46.0495 244.557 45.9616 244.524 45.8184 244.459C45.5059 244.329 45.1771 244.221 44.832 244.137C44.4935 244.046 44.0605 244 43.5332 244C42.5111 244 41.7526 244.326 41.2578 244.977C40.7695 245.621 40.5254 246.598 40.5254 247.906C40.5254 249.215 40.7728 250.201 41.2676 250.865C41.7624 251.529 42.5046 251.861 43.4941 251.861C44.0085 251.861 44.4544 251.809 44.832 251.705C45.2161 251.601 45.5905 251.467 45.9551 251.305C45.9746 251.298 46.0332 251.275 46.1309 251.236C46.2285 251.191 46.3001 251.168 46.3457 251.168C46.515 251.168 46.6777 251.269 46.834 251.471C46.9902 251.666 47.1172 251.891 47.2148 252.145C47.3125 252.392 47.3613 252.571 47.3613 252.682C47.3613 253.001 47.1465 253.271 46.7168 253.492C46.2936 253.714 45.7793 253.88 45.1738 253.99C44.5749 254.094 44.015 254.146 43.4941 254.146ZM48.8262 254.029C48.1165 254.029 47.7617 253.902 47.7617 253.648C47.7617 253.577 47.7845 253.473 47.8301 253.336L51.6582 242.174C51.7493 241.926 52.0781 241.803 52.6445 241.803H53.543C54.1094 241.803 54.4382 241.926 54.5293 242.174L58.3574 253.336C58.39 253.466 58.4062 253.57 58.4062 253.648C58.4062 253.779 58.3346 253.876 58.1914 253.941C58.0547 254 57.8366 254.029 57.5371 254.029H56.7754C56.502 254.029 56.2806 254.003 56.1113 253.951C55.9486 253.893 55.8477 253.798 55.8086 253.668L55.1055 251.549H51.0137L50.3105 253.668C50.2389 253.909 49.972 254.029 49.5098 254.029H48.8262ZM54.3633 249.254L53.377 246.168C53.3184 246.012 53.2663 245.833 53.2207 245.631C53.1816 245.429 53.1458 245.237 53.1133 245.055H53.0449L53.0059 245.27C52.9408 245.654 52.8659 245.953 52.7812 246.168L51.7559 249.254H54.3633ZM60.6523 254.029C59.9557 254.029 59.6074 253.847 59.6074 253.482V242.535C59.6074 242.294 59.6628 242.122 59.7734 242.018C59.8841 241.907 60.0599 241.852 60.3008 241.852H63.6895C66.5671 241.852 68.0059 242.936 68.0059 245.104C68.0059 245.761 67.8203 246.327 67.4492 246.803C67.0846 247.278 66.5931 247.633 65.9746 247.867V247.936C66.1895 248.027 66.4141 248.222 66.6484 248.521C66.8893 248.821 67.0814 249.16 67.2246 249.537L68.7578 253.355C68.8099 253.512 68.8359 253.622 68.8359 253.688C68.8359 253.915 68.4909 254.029 67.8008 254.029H67.0879C66.5085 254.029 66.1732 253.909 66.082 253.668L64.7051 250.279C64.5749 250.019 64.4479 249.817 64.3242 249.674C64.207 249.531 64.041 249.423 63.8262 249.352C63.6113 249.273 63.3216 249.234 62.957 249.234H62.2832V253.482C62.2832 253.847 61.9349 254.029 61.2383 254.029H60.6523ZM63.9238 246.93C64.1582 246.93 64.3796 246.865 64.5879 246.734C64.7962 246.598 64.9622 246.415 65.0859 246.188C65.2096 245.96 65.2715 245.709 65.2715 245.436C65.2715 245.032 65.138 244.713 64.8711 244.479C64.6107 244.238 64.2559 244.117 63.8066 244.117H62.2832V246.93H63.9238ZM70.9062 254C70.6654 254 70.4896 253.945 70.3789 253.834C70.2682 253.723 70.2129 253.548 70.2129 253.307V242.535C70.2129 242.294 70.2682 242.122 70.3789 242.018C70.4896 241.907 70.6654 241.852 70.9062 241.852H74.793C75.9844 241.852 76.9935 242.086 77.8203 242.555C78.6536 243.017 79.2819 243.701 79.7051 244.605C80.1348 245.51 80.3496 246.614 80.3496 247.916C80.3496 249.225 80.1348 250.331 79.7051 251.236C79.2819 252.141 78.6536 252.828 77.8203 253.297C76.9935 253.766 75.9844 254 74.793 254H70.9062ZM74.793 251.725C75.7174 251.725 76.4173 251.402 76.8926 250.758C77.3678 250.107 77.6055 249.16 77.6055 247.916C77.6055 246.679 77.3678 245.738 76.8926 245.094C76.4173 244.443 75.7174 244.117 74.793 244.117H72.9082V251.725H74.793ZM83.582 254.029C82.8919 254.029 82.5469 253.847 82.5469 253.482V242.369C82.5469 242.18 82.6283 242.04 82.791 241.949C82.9603 241.852 83.224 241.803 83.582 241.803H84.1973C84.5553 241.803 84.8158 241.852 84.9785 241.949C85.1478 242.04 85.2324 242.18 85.2324 242.369V246.656H89.9199V242.369C89.9199 242.18 90.0046 242.04 90.1738 241.949C90.3431 241.852 90.6068 241.803 90.9648 241.803H91.5703C92.2669 241.803 92.6152 241.992 92.6152 242.369V253.482C92.6152 253.847 92.2669 254.029 91.5703 254.029H90.9648C90.2682 254.029 89.9199 253.847 89.9199 253.482V248.951H85.2324V253.482C85.2324 253.847 84.8874 254.029 84.1973 254.029H83.582ZM100.164 254.146C98.9792 254.146 97.9701 253.906 97.1367 253.424C96.3099 252.942 95.6784 252.239 95.2422 251.314C94.8125 250.383 94.5977 249.251 94.5977 247.916C94.5977 246.588 94.8125 245.462 95.2422 244.537C95.6784 243.606 96.3099 242.903 97.1367 242.428C97.9701 241.946 98.9792 241.705 100.164 241.705C101.355 241.705 102.365 241.946 103.191 242.428C104.025 242.903 104.656 243.606 105.086 244.537C105.516 245.462 105.73 246.588 105.73 247.916C105.73 249.251 105.516 250.383 105.086 251.314C104.656 252.239 104.025 252.942 103.191 253.424C102.365 253.906 101.355 254.146 100.164 254.146ZM100.164 251.861C101.095 251.861 101.798 251.526 102.273 250.855C102.749 250.178 102.986 249.199 102.986 247.916C102.986 246.633 102.749 245.66 102.273 244.996C101.798 244.332 101.095 244 100.164 244C99.2396 244 98.5365 244.335 98.0547 245.006C97.5794 245.67 97.3418 246.64 97.3418 247.916C97.3418 249.199 97.5827 250.178 98.0645 250.855C98.5462 251.526 99.2461 251.861 100.164 251.861ZM108.406 254C108.165 254 107.99 253.945 107.879 253.834C107.768 253.723 107.713 253.548 107.713 253.307V242.369C107.713 242.18 107.798 242.04 107.967 241.949C108.136 241.852 108.4 241.803 108.758 241.803H109.344C109.702 241.803 109.965 241.852 110.135 241.949C110.304 242.04 110.389 242.18 110.389 242.369V251.725H114.256C114.438 251.725 114.568 251.793 114.646 251.93C114.731 252.066 114.773 252.285 114.773 252.584V253.131C114.773 253.437 114.731 253.658 114.646 253.795C114.568 253.932 114.438 254 114.256 254H108.406ZM116.805 254C116.564 254 116.388 253.945 116.277 253.834C116.167 253.723 116.111 253.548 116.111 253.307V242.535C116.111 242.294 116.167 242.122 116.277 242.018C116.388 241.907 116.564 241.852 116.805 241.852H120.691C121.883 241.852 122.892 242.086 123.719 242.555C124.552 243.017 125.18 243.701 125.604 244.605C126.033 245.51 126.248 246.614 126.248 247.916C126.248 249.225 126.033 250.331 125.604 251.236C125.18 252.141 124.552 252.828 123.719 253.297C122.892 253.766 121.883 254 120.691 254H116.805ZM120.691 251.725C121.616 251.725 122.316 251.402 122.791 250.758C123.266 250.107 123.504 249.16 123.504 247.916C123.504 246.679 123.266 245.738 122.791 245.094C122.316 244.443 121.616 244.117 120.691 244.117H118.807V251.725H120.691ZM128.875 254C128.634 254 128.458 253.945 128.348 253.834C128.237 253.723 128.182 253.548 128.182 253.307V242.535C128.182 242.294 128.237 242.122 128.348 242.018C128.458 241.907 128.634 241.852 128.875 241.852H135.232C135.415 241.852 135.545 241.92 135.623 242.057C135.708 242.193 135.75 242.415 135.75 242.721V243.248C135.75 243.554 135.708 243.775 135.623 243.912C135.545 244.049 135.415 244.117 135.232 244.117H130.857V246.637H134.764C134.946 246.637 135.076 246.705 135.154 246.842C135.239 246.979 135.281 247.2 135.281 247.506V248.043C135.281 248.349 135.239 248.57 135.154 248.707C135.076 248.844 134.946 248.912 134.764 248.912H130.857V251.725H135.242C135.424 251.725 135.555 251.793 135.633 251.93C135.717 252.066 135.76 252.285 135.76 252.584V253.131C135.76 253.437 135.717 253.658 135.633 253.795C135.555 253.932 135.424 254 135.242 254H128.875ZM138.719 254.029C138.022 254.029 137.674 253.847 137.674 253.482V242.535C137.674 242.294 137.729 242.122 137.84 242.018C137.951 241.907 138.126 241.852 138.367 241.852H141.756C144.633 241.852 146.072 242.936 146.072 245.104C146.072 245.761 145.887 246.327 145.516 246.803C145.151 247.278 144.66 247.633 144.041 247.867V247.936C144.256 248.027 144.48 248.222 144.715 248.521C144.956 248.821 145.148 249.16 145.291 249.537L146.824 253.355C146.876 253.512 146.902 253.622 146.902 253.688C146.902 253.915 146.557 254.029 145.867 254.029H145.154C144.575 254.029 144.24 253.909 144.148 253.668L142.771 250.279C142.641 250.019 142.514 249.817 142.391 249.674C142.273 249.531 142.107 249.423 141.893 249.352C141.678 249.273 141.388 249.234 141.023 249.234H140.35V253.482C140.35 253.847 140.001 254.029 139.305 254.029H138.719ZM141.99 246.93C142.225 246.93 142.446 246.865 142.654 246.734C142.863 246.598 143.029 246.415 143.152 246.188C143.276 245.96 143.338 245.709 143.338 245.436C143.338 245.032 143.204 244.713 142.938 244.479C142.677 244.238 142.322 244.117 141.873 244.117H140.35V246.93H141.99Z" fill="#A29E9E"/>
</g>
<defs>
<filter id="filter0_bd_0_1" x="850" y="644" width="372" height="472" filterUnits="userSpaceOnUse" color-interpolation-filters="sRGB">
<feFlood flood-opacity="0" result="BackgroundImageFix"/>
<feGaussianBlur in="BackgroundImageFix" stdDeviation="3.5"/>
<feComposite in2="SourceAlpha" operator="in" result="effect1_backgroundBlur_0_1"/>
<feColorMatrix in="SourceAlpha" type="matrix" values="0 0 0 0 0 0 0 0 0 0 0 0 0 0 0 0 0 0 127 0" result="hardAlpha"/>
<feOffset dy="4"/>
<feGaussianBlur stdDeviation="2"/>
<feComposite in2="hardAlpha" operator="out"/>
<feColorMatrix type="matrix" values="0 0 0 0 0 0 0 0 0 0 0 0 0 0 0 0 0 0 0.25 0"/>
<feBlend mode="normal" in2="effect1_backgroundBlur_0_1" result="effect2_dropShadow_0_1"/>
<feBlend mode="normal" in="SourceGraphic" in2="effect2_dropShadow_0_1" result="shape"/>
</filter>
<filter id="filter1_b_0_1" x="912" y="796" width="249" height="100" filterUnits="userSpaceOnUse" color-interpolation-filters="sRGB">
<feFlood flood-opacity="0" result="BackgroundImageFix"/>
<feGaussianBlur in="BackgroundImageFix" stdDeviation="2"/>
<feComposite in2="SourceAlpha" operator="in" result="effect1_backgroundBlur_0_1"/>
<feBlend mode="normal" in="SourceGraphic" in2="effect1_backgroundBlur_0_1" result="shape"/>
</filter>
<filter id="filter2_i_0_1" x="895" y="846" width="282" height="72" filterUnits="userSpaceOnUse" color-interpolation-filters="sRGB">
<feFlood flood-opacity="0" result="BackgroundImageFix"/>
<feBlend mode="normal" in="SourceGraphic" in2="BackgroundImageFix" result="shape"/>
<feColorMatrix in="SourceAlpha" type="matrix" values="0 0 0 0 0 0 0 0 0 0 0 0 0 0 0 0 0 0 127 0" result="hardAlpha"/>
<feOffset dy="4"/>
<feGaussianBlur stdDeviation="2"/>
<feComposite in2="hardAlpha" operator="arithmetic" k2="-1" k3="1"/>
<feColorMatrix type="matrix" values="0 0 0 0 0 0 0 0 0 0 0 0 0 0 0 0 0 0 0.25 0"/>
<feBlend mode="normal" in2="shape" result="effect1_innerShadow_0_1"/>
</filter>
<filter id="filter3_i_0_1" x="896" y="943" width="282" height="72" filterUnits="userSpaceOnUse" color-interpolation-filters="sRGB">
<feFlood flood-opacity="0" result="BackgroundImageFix"/>
<feBlend mode="normal" in="SourceGraphic" in2="BackgroundImageFix" result="shape"/>
<feColorMatrix in="SourceAlpha" type="matrix" values="0 0 0 0 0 0 0 0 0 0 0 0 0 0 0 0 0 0 127 0" result="hardAlpha"/>
<feOffset dy="4"/>
<feGaussianBlur stdDeviation="2"/>
<feComposite in2="hardAlpha" operator="arithmetic" k2="-1" k3="1"/>
<feColorMatrix type="matrix" values="0 0 0 0 0 0 0 0 0 0 0 0 0 0 0 0 0 0 0.25 0"/>
<feBlend mode="normal" in2="shape" result="effect1_innerShadow_0_1"/>
</filter>
<filter id="filter4_i_0_1" x="118" y="747" width="396" height="93" filterUnits="userSpaceOnUse" color-interpolation-filters="sRGB">
<feFlood flood-opacity="0" result="BackgroundImageFix"/>
<feBlend mode="normal" in="SourceGraphic" in2="BackgroundImageFix" result="shape"/>
<feColorMatrix in="SourceAlpha" type="matrix" values="0 0 0 0 0 0 0 0 0 0 0 0 0 0 0 0 0 0 127 0" result="hardAlpha"/>
<feMorphology radius="1" operator="erode" in="SourceAlpha" result="effect1_innerShadow_0_1"/>
<feOffset dx="4" dy="8"/>
<feGaussianBlur stdDeviation="3"/>
<feComposite in2="hardAlpha" operator="arithmetic" k2="-1" k3="1"/>
<feColorMatrix type="matrix" values="0 0 0 0 0 0 0 0 0 0 0 0 0 0 0 0 0 0 0.49 0"/>
<feBlend mode="normal" in2="shape" result="effect1_innerShadow_0_1"/>
</filter>
<filter id="filter5_bd_0_1" x="-3" y="-7" width="535" height="326" filterUnits="userSpaceOnUse" color-interpolation-filters="sRGB">
<feFlood flood-opacity="0" result="BackgroundImageFix"/>
<feGaussianBlur in="BackgroundImageFix" stdDeviation="3.5"/>
<feComposite in2="SourceAlpha" operator="in" result="effect1_backgroundBlur_0_1"/>
<feColorMatrix in="SourceAlpha" type="matrix" values="0 0 0 0 0 0 0 0 0 0 0 0 0 0 0 0 0 0 127 0" result="hardAlpha"/>
<feOffset dy="4"/>
<feGaussianBlur stdDeviation="2"/>
<feComposite in2="hardAlpha" operator="out"/>
<feColorMatrix type="matrix" values="0 0 0 0 0 0 0 0 0 0 0 0 0 0 0 0 0 0 0.25 0"/>
<feBlend mode="normal" in2="effect1_backgroundBlur_0_1" result="effect2_dropShadow_0_1"/>
<feBlend mode="normal" in="SourceGraphic" in2="effect2_dropShadow_0_1" result="shape"/>
</filter>
<linearGradient id="paint0_linear_0_1" x1="461" y1="257" x2="985" y2="711" gradientUnits="userSpaceOnUse">
<stop stop-color="#670F0F"/>
<stop offset="1" stop-color="white"/>
</linearGradient>
<radialGradient id="paint1_angular_0_1" cx="0" cy="0" r="1" gradientUnits="userSpaceOnUse" gradientTransform="translate(794.5 480) rotate(-41.0932) scale(57.114 60.2623)">
<stop stop-color="#CC0606"/>
<stop offset="1" stop-color="#D89B25"/>
</radialGradient>
<linearGradient id="paint2_linear_0_1" x1="714" y1="467" x2="627" y2="480" gradientUnits="userSpaceOnUse">
<stop stop-color="#D70000"/>
<stop offset="0.895738" stop-color="#FFBA33"/>
</linearGradient>
<linearGradient id="paint3_linear_0_1" x1="314" y1="699" x2="314" y2="880" gradientUnits="userSpaceOnUse">
<stop stop-color="#29292A"/>
<stop offset="1" stop-color="#020111" stop-opacity="0"/>
</linearGradient>
</defs>
</svg>
