<svg xmlns="http://www.w3.org/2000/svg" xmlns:xlink="http://www.w3.org/1999/xlink" viewBox="0 0 311.07 233.62"><defs><style>.cls-1{fill:none;}.cls-2{isolation:isolate;}.cls-3{clip-path:url(#clip-path);}.cls-4{fill:#141414;}.cls-5{fill:#1d1d1d;}.cls-6{fill:#242424;}.cls-7{fill:#292929;}.cls-8{fill:#2e2e2e;}.cls-9{fill:#333;}.cls-10{fill:#373737;}.cls-11{fill:#3b3b3b;}.cls-12{fill:#3e3e3e;}.cls-13{fill:#424242;}.cls-14{clip-path:url(#clip-path-2);}.cls-15{clip-path:url(#clip-path-3);}.cls-16{fill:#626262;}.cls-17{fill:#606060;}.cls-18{fill:#5f5f5f;}.cls-19{fill:#5e5e5e;}.cls-20{fill:#5d5d5d;}.cls-21{fill:#5b5b5b;}.cls-22{fill:#5a5a5a;}.cls-23{fill:#595959;}.cls-24{clip-path:url(#clip-path-4);}.cls-25{clip-path:url(#clip-path-5);}.cls-26{clip-path:url(#clip-path-6);}.cls-27{fill:#585858;}.cls-28{clip-path:url(#clip-path-7);}.cls-29{fill:#636363;}.cls-30{fill:#646464;}.cls-31{fill:#656565;}.cls-32{fill:#666;}.cls-33{fill:#686868;}.cls-34{fill:#696969;}.cls-35{fill:#6a6a6a;}.cls-36{fill:#6b6b6b;}.cls-37{fill:#6c6c6c;}.cls-38{fill:#6e6e6e;}.cls-39{fill:#6f6f6f;}.cls-40{fill:#707070;}.cls-41{fill:#717171;}.cls-42{clip-path:url(#clip-path-8);}.cls-43{fill:#575757;}.cls-44{fill:#7d7d7d;}.cls-45{clip-path:url(#clip-path-9);}.cls-46{fill:#b3b3b3;}.cls-47{fill:#b1b1b1;}.cls-48{fill:#b0b0b0;}.cls-49{fill:#aeaeae;}.cls-50{fill:#acacac;}.cls-51{fill:#ababab;}.cls-52{fill:#a9a9a9;}.cls-53{fill:#a6a6a6;}.cls-54{fill:#a4a4a4;}.cls-55{fill:#a0a0a0;}.cls-56{fill:#989898;}.cls-57{fill:#979797;}.cls-58{fill:#969696;}.cls-59{fill:#949494;}.cls-60{fill:#939393;}.cls-61{fill:#929292;}.cls-62{fill:#919191;}.cls-63{fill:#8f8f8f;}.cls-64{fill:#8e8e8e;}.cls-65{fill:#8d8d8d;}.cls-66{fill:#8c8c8c;}.cls-67{fill:#8b8b8b;}.cls-68{fill:#898989;}.cls-69{fill:#888;}.cls-70{fill:#878787;}.cls-71{fill:#868686;}.cls-72{fill:#858585;}.cls-73{fill:#838383;}.cls-74{fill:#828282;}.cls-75{fill:#818181;}.cls-76{fill:gray;}.cls-77{fill:#7f7f7f;}.cls-78{fill:#7c7c7c;}.cls-79{fill:#7b7b7b;}.cls-80{fill:#7a7a7a;}.cls-81{fill:#787878;}.cls-82{fill:#777;}.cls-83{fill:#767676;}.cls-84{fill:#757575;}.cls-85{fill:#747474;}.cls-86{fill:#727272;}.cls-87{clip-path:url(#clip-path-10);}.cls-88{clip-path:url(#clip-path-11);}.cls-89{fill:#cf1700;}.cls-90{fill:#ff9217;}.cls-91{fill:#17ff3e;}.cls-92{fill:blue;}.cls-93{fill:red;}.cls-94{fill:#ff1d25;}.cls-95{fill:#ff0;}</style><clipPath id="clip-path" transform="translate(0 0)"><path class="cls-1" d="M1,160.48,3.51,155C2.84,165.05,12,175.14,24,177.46L21.5,183C9.53,180.64.34,170.55,1,160.48Z"/></clipPath><clipPath id="clip-path-2" transform="translate(0 0)"><path class="cls-1" d="M299.51,217.82l-2.5,5.5c-3.18,7-11.86,10.89-21.67,9l2.5-5.51C287.65,228.71,296.33,224.83,299.51,217.82Z"/></clipPath><clipPath id="clip-path-3" transform="translate(0 0)"><path class="cls-1" d="M300.77,212.76a14.49,14.49,0,0,1-1.26,5.05l-2.5,5.51a14.54,14.54,0,0,0,1.26-5.06Z"/></clipPath><clipPath id="clip-path-4" transform="translate(0 0)"><path class="cls-1" d="M300.42,218.23l-2.5,5.5a15,15,0,0,0,1.31-5.29l2.51-5.5A15.31,15.31,0,0,1,300.42,218.23Z"/></clipPath><clipPath id="clip-path-5" transform="translate(0 0)"><path class="cls-1" d="M11.57,15.8l2.5-5.5a14.38,14.38,0,0,0-1.26,5.07l-2.5,5.5A14.38,14.38,0,0,1,11.57,15.8Z"/></clipPath><clipPath id="clip-path-6" transform="translate(0 0)"><path class="cls-1" d="M15.29,8.14c-.83,1.83-1.67,3.66-2.5,5.5a14.44,14.44,0,0,0-1.23,2.17l2.5-5.5A14.44,14.44,0,0,1,15.29,8.14Z"/></clipPath><clipPath id="clip-path-7" transform="translate(0 0)"><path class="cls-1" d="M27.63,1.05c-.83,1.83-1.66,3.67-2.5,5.5a17.59,17.59,0,0,0-12.34,7.09L13,13.1l.26-.57.27-.6.27-.6.27-.61.27-.59.26-.57L14.89,9l0-.11.05-.1,0-.12.05-.11.05-.12,0-.11.05-.11,0-.1A17.59,17.59,0,0,1,27.63,1.05Z"/></clipPath><clipPath id="clip-path-8" transform="translate(0 0)"><path class="cls-1" d="M10.65,15.39l2.5-5.5C16.47,2.57,25.54-1.49,35.78.5L33.28,6C23,4,14,8.07,10.65,15.39Z"/></clipPath><clipPath id="clip-path-9" transform="translate(0 0)"><path class="cls-1" d="M297.44,53.48c7.88,4.24,13.14,12,12.63,19.67l-2.51,5.5c.52-7.71-4.75-15.43-12.62-19.67l.26-.57.27-.59.28-.62.29-.64.29-.63.28-.62.27-.6.26-.57,0-.07,0-.09,0-.08,0-.09,0-.09,0-.08,0-.09Z"/></clipPath><clipPath id="clip-path-10" transform="translate(0 0)"><path class="cls-1" d="M297.44,53.48l-2.5,5.5a27.86,27.86,0,0,0-7.87-2.82l2.5-5.5A27.55,27.55,0,0,1,297.44,53.48Z"/></clipPath><clipPath id="clip-path-11" transform="translate(0 0)"><path class="cls-1" d="M287.12,55.35l2.5-5.5c12.51,2.43,22.11,13,21.41,23.49l-2.5,5.5C309.23,68.32,299.63,57.78,287.12,55.35Z"/></clipPath></defs><g id="Layer_2" data-name="Layer 2"><g id="Layer_1-2" data-name="Layer 1"><g class="cls-2"><g class="cls-2"><g class="cls-3"><g class="cls-2"><path d="M1,160.48,3.51,155V155L1,160.53v-.05" transform="translate(0 0)"/><path d="M1,160.53l2.5-5.5,0,.48L1,161l0-.49" transform="translate(0 0)"/><path d="M1,161l2.5-5.51V156L1,161.5V161" transform="translate(0 0)"/><path d="M1,161.5l2.5-5.5v.48L1,162v-.48" transform="translate(0 0)"/><path d="M1,162l2.5-5.5c0,.15,0,.29,0,.44L1,162.42c0-.14,0-.29,0-.44" transform="translate(0 0)"/><path d="M1,162.42l2.5-5.5,0,.44L1,162.87l0-.45" transform="translate(0 0)"/><path d="M1,162.87l2.5-5.51c0,.15,0,.3.05.44l-2.5,5.51c0-.15,0-.3-.05-.44" transform="translate(0 0)"/><path d="M1.08,163.31l2.5-5.51c0,.15,0,.29,0,.43l-2.5,5.5c0-.14,0-.28,0-.42" transform="translate(0 0)"/><path d="M1.13,163.73l2.5-5.5.06.42-2.5,5.5-.06-.42" transform="translate(0 0)"/><path d="M1.19,164.15l2.5-5.5c0,.14.05.28.08.41l-2.5,5.51c0-.14-.05-.28-.08-.42" transform="translate(0 0)"/><path d="M1.27,164.57l2.5-5.51c0,.14,0,.28.08.42L1.35,165c0-.14-.06-.28-.08-.41" transform="translate(0 0)"/><path d="M1.35,165l2.5-5.5.09.4-2.5,5.51L1.35,165" transform="translate(0 0)"/><path d="M1.44,165.39l2.5-5.51c0,.14.07.27.1.41l-2.5,5.5c0-.14-.07-.27-.1-.4" transform="translate(0 0)"/><path d="M1.54,165.79l2.5-5.5c0,.13.08.26.11.4l-2.5,5.5c0-.13-.07-.27-.11-.4" transform="translate(0 0)"/><path d="M1.65,166.19l2.5-5.5c0,.13.08.26.13.4l-2.51,5.5-.12-.4" transform="translate(0 0)"/><path d="M1.77,166.59l2.51-5.5.12.39L1.9,167c0-.14-.08-.27-.13-.4" transform="translate(0 0)"/><path d="M1.9,167l2.5-5.51c0,.14.1.27.14.4L2,167.38c0-.13-.09-.26-.14-.39" transform="translate(0 0)"/><path d="M2,167.38l2.5-5.5.15.39-2.5,5.51-.15-.4" transform="translate(0 0)"/><path d="M2.19,167.78l2.5-5.51c0,.14.11.27.16.4l-2.5,5.5-.16-.39" transform="translate(0 0)"/><path d="M2.35,168.17l2.5-5.5.17.39-2.5,5.5c-.06-.13-.12-.26-.17-.39" transform="translate(0 0)"/><path d="M2.52,168.56l2.5-5.5.18.39L2.7,169c-.07-.13-.12-.26-.18-.4" transform="translate(0 0)"/><path d="M2.7,169l2.5-5.51.18.39-2.5,5.5L2.7,169" transform="translate(0 0)"/><path d="M2.88,169.34l2.5-5.5.2.39-2.5,5.5c-.07-.12-.13-.25-.2-.39" transform="translate(0 0)"/><path d="M3.08,169.73l2.5-5.5.2.39-2.5,5.5-.2-.39" transform="translate(0 0)"/><path d="M3.28,170.12l2.5-5.5L6,165l-2.5,5.51-.22-.39" transform="translate(0 0)"/><path d="M3.5,170.51,6,165l.22.38-2.5,5.51-.22-.38" transform="translate(0 0)"/><path d="M3.72,170.89l2.5-5.51.23.38L4,171.26l-.23-.37" transform="translate(0 0)"/><path d="M4,171.26l2.5-5.5.24.37-2.5,5.5L4,171.26" transform="translate(0 0)"/><path d="M4.19,171.63l2.5-5.5.24.36L4.43,172l-.24-.36" transform="translate(0 0)"/><path d="M4.43,172l2.5-5.5.24.35-2.5,5.5L4.43,172" transform="translate(0 0)"/><path d="M4.67,172.34l2.5-5.5.25.34-2.5,5.51-.25-.35" transform="translate(0 0)"/><path d="M4.92,172.69l2.5-5.51c.08.12.17.23.26.34L5.17,173l-.25-.33" transform="translate(0 0)"/><path d="M5.17,173l2.51-5.5.26.34-2.5,5.5L5.17,173" transform="translate(0 0)"/><path d="M5.44,173.36l2.5-5.5.24.3-2.5,5.51-.24-.31" transform="translate(0 0)"/><path d="M5.68,173.67l2.5-5.51.26.31L5.94,174l-.26-.3" transform="translate(0 0)"/><path d="M5.94,174l2.5-5.5.25.29-2.5,5.51-.25-.3" transform="translate(0 0)"/><path d="M6.19,174.27l2.5-5.51.27.3-2.5,5.5-.27-.29" transform="translate(0 0)"/><path d="M6.46,174.56l2.5-5.5.25.27-2.5,5.5-.25-.27" transform="translate(0 0)"/><path d="M6.71,174.83l2.5-5.5.25.27L7,175.1l-.25-.27" transform="translate(0 0)"/><path d="M7,175.1l2.5-5.5.25.26-2.5,5.5L7,175.1" transform="translate(0 0)"/><path d="M7.21,175.36l2.5-5.5.26.25-2.5,5.51-.26-.26" transform="translate(0 0)"/><path d="M7.47,175.62l2.5-5.51.26.26-2.5,5.5-.26-.25" transform="translate(0 0)"/><path d="M7.73,175.87l2.5-5.5.26.24L8,176.11l-.26-.24" transform="translate(0 0)"/><path d="M8,176.11l2.5-5.5.26.24-2.5,5.5L8,176.11" transform="translate(0 0)"/><path d="M8.25,176.35l2.5-5.5.26.24-2.5,5.5-.26-.24" transform="translate(0 0)"/><path d="M8.51,176.59l2.5-5.5.27.23-2.5,5.5-.27-.23" transform="translate(0 0)"/><path class="cls-4" d="M8.78,176.82l2.5-5.5.28.24-2.5,5.5-.28-.24" transform="translate(0 0)"/><path class="cls-5" d="M9.06,177.06l2.5-5.5.3.24-2.5,5.51-.3-.25" transform="translate(0 0)"/><path class="cls-6" d="M9.36,177.31l2.5-5.51.3.24-2.5,5.51-.3-.24" transform="translate(0 0)"/><path class="cls-7" d="M9.66,177.55l2.5-5.51.3.24-2.5,5.5-.3-.23" transform="translate(0 0)"/><path class="cls-8" d="M10,177.78l2.5-5.5.32.24-2.5,5.5-.32-.24" transform="translate(0 0)"/><path class="cls-9" d="M10.28,178l2.5-5.5.42.3-2.5,5.51-.42-.31" transform="translate(0 0)"/><path class="cls-10" d="M10.7,178.33l2.5-5.51.43.31-2.5,5.5-.43-.3" transform="translate(0 0)"/><path class="cls-11" d="M11.13,178.63l2.5-5.5.44.29-2.5,5.5-.44-.29" transform="translate(0 0)"/><path class="cls-12" d="M11.57,178.92l2.5-5.5,1,.61-2.5,5.5-1-.61" transform="translate(0 0)"/><path class="cls-13" d="M12.54,179.53,15,174l1.3.73-2.5,5.5c-.44-.23-.87-.48-1.3-.73" transform="translate(0 0)"/><path class="cls-12" d="M13.84,180.26l2.5-5.5c.33.17.67.35,1,.51l-2.5,5.5q-.52-.24-1-.51" transform="translate(0 0)"/><path class="cls-11" d="M14.86,180.77l2.5-5.5.45.21-2.5,5.5-.45-.21" transform="translate(0 0)"/><path class="cls-10" d="M15.31,181l2.5-5.5.46.21-2.5,5.5-.46-.21" transform="translate(0 0)"/><path class="cls-9" d="M15.77,181.19l2.5-5.5.47.19-2.5,5.5-.47-.19" transform="translate(0 0)"/><path class="cls-8" d="M16.24,181.38l2.5-5.5.34.14-2.5,5.5-.34-.14" transform="translate(0 0)"/><path class="cls-7" d="M16.58,181.52l2.5-5.5.32.13-2.5,5.5-.32-.13" transform="translate(0 0)"/><path class="cls-6" d="M16.9,181.65l2.5-5.5.33.12-2.5,5.5-.33-.12" transform="translate(0 0)"/><path class="cls-5" d="M17.23,181.77l2.5-5.5.32.11-2.5,5.51-.32-.12" transform="translate(0 0)"/><path class="cls-4" d="M17.55,181.89l2.5-5.51.33.12-2.5,5.5-.33-.11" transform="translate(0 0)"/><path d="M17.88,182l2.5-5.5.3.1-2.5,5.5-.3-.1" transform="translate(0 0)"/><path d="M18.18,182.1l2.5-5.5.29.09-2.5,5.5-.29-.09" transform="translate(0 0)"/><path d="M18.47,182.19l2.5-5.5.29.09-2.5,5.5a1.61,1.61,0,0,1-.29-.09" transform="translate(0 0)"/><path d="M18.76,182.28l2.5-5.5.29.09-2.5,5.5-.29-.09" transform="translate(0 0)"/><path d="M19.05,182.37l2.5-5.5.3.08-2.5,5.51-.3-.09" transform="translate(0 0)"/><path d="M19.35,182.46l2.5-5.51.29.08-2.5,5.51-.29-.08" transform="translate(0 0)"/><path d="M19.64,182.54l2.5-5.51.31.08-2.51,5.51-.3-.08" transform="translate(0 0)"/><path d="M19.94,182.62l2.51-5.51.3.08-2.5,5.5-.31-.07" transform="translate(0 0)"/><path d="M20.25,182.69l2.5-5.5.3.07-2.5,5.5-.3-.07" transform="translate(0 0)"/><path d="M20.55,182.76l2.5-5.5.31.07-2.5,5.5-.31-.07" transform="translate(0 0)"/><path d="M20.86,182.83l2.5-5.5.31.07-2.5,5.5-.31-.07" transform="translate(0 0)"/><path d="M21.17,182.9l2.5-5.5.31.06-2.5,5.5-.31-.06" transform="translate(0 0)"/><path d="M21.48,183l2.5-5.5h0L21.5,183h0" transform="translate(0 0)"/></g></g></g><polygon points="21.5 182.97 24 177.46 277.84 226.8 275.34 232.31 21.5 182.97"/><g class="cls-2"><g class="cls-14"><g class="cls-2"><path d="M275.34,232.31l2.5-5.51.31.06-2.5,5.5-.31-.05" transform="translate(0 0)"/><path d="M275.65,232.36l2.5-5.5.34.06-2.5,5.5a2,2,0,0,1-.34-.06" transform="translate(0 0)"/><path d="M276,232.42l2.5-5.5.34.06-2.5,5.5-.34-.06" transform="translate(0 0)"/><path d="M276.33,232.48l2.5-5.5.33.05-2.5,5.5-.33-.05" transform="translate(0 0)"/><path d="M276.66,232.53l2.5-5.5.34,0-2.5,5.51-.34-.05" transform="translate(0 0)"/><path d="M277,232.58l2.5-5.51.36.05-2.5,5.5-.36,0" transform="translate(0 0)"/><path d="M277.36,232.62l2.5-5.5.38,0-2.5,5.5-.38,0" transform="translate(0 0)"/><path d="M277.74,232.66l2.5-5.5.37,0-2.5,5.51-.37,0" transform="translate(0 0)"/><path d="M278.11,232.7l2.5-5.51.37,0-2.5,5.51-.37,0" transform="translate(0 0)"/><path d="M278.48,232.73l2.5-5.51.37,0-2.5,5.5-.37,0" transform="translate(0 0)"/><path d="M278.85,232.75l2.5-5.5.41,0-2.5,5.5-.41,0" transform="translate(0 0)"/><path d="M279.26,232.77l2.5-5.5h.41l-2.5,5.5h-.41" transform="translate(0 0)"/><path d="M279.67,232.78l2.5-5.5h.4l-2.5,5.5h-.4" transform="translate(0 0)"/><path d="M280.07,232.79l2.5-5.5h.4l-2.5,5.5h-.4" transform="translate(0 0)"/><path d="M280.47,232.79l2.5-5.5h.42l-2.5,5.5h-.42" transform="translate(0 0)"/><path d="M280.89,232.78l2.5-5.5.42,0-2.5,5.51h-.42" transform="translate(0 0)"/><path d="M281.31,232.77l2.5-5.51.43,0-2.5,5.5-.43,0" transform="translate(0 0)"/><path d="M281.74,232.74l2.5-5.5.42,0-2.5,5.5-.42,0" transform="translate(0 0)"/><path d="M282.16,232.71l2.5-5.5.43,0-2.5,5.51-.43,0" transform="translate(0 0)"/><path d="M282.59,232.68l2.5-5.51.43,0-2.5,5.5-.43.05" transform="translate(0 0)"/><path d="M283,232.63l2.5-5.5.44-.06-2.5,5.5-.44.06" transform="translate(0 0)"/><path d="M283.46,232.57l2.5-5.5.42-.06-2.5,5.5-.42.06" transform="translate(0 0)"/><path d="M283.88,232.51l2.5-5.5.45-.08-2.5,5.5-.45.08" transform="translate(0 0)"/><path d="M284.33,232.43l2.5-5.5.44-.08-2.5,5.5-.44.08" transform="translate(0 0)"/><path d="M284.77,232.35l2.5-5.5.44-.09-2.5,5.5-.44.09" transform="translate(0 0)"/><path d="M285.21,232.26l2.5-5.5.44-.11-2.5,5.5-.44.11" transform="translate(0 0)"/><path d="M285.65,232.15l2.5-5.5.46-.12-2.5,5.51-.46.11" transform="translate(0 0)"/><path d="M286.11,232l2.5-5.51.45-.12-2.5,5.5-.45.13" transform="translate(0 0)"/><path d="M286.56,231.91l2.5-5.5.44-.14-2.5,5.5-.44.14" transform="translate(0 0)"/><path d="M287,231.77l2.5-5.5.48-.16-2.5,5.5-.48.16" transform="translate(0 0)"/><path d="M287.48,231.61l2.5-5.5.47-.17-2.51,5.5-.46.17" transform="translate(0 0)"/><path d="M287.94,231.44l2.51-5.5.46-.18-2.5,5.5-.47.18" transform="translate(0 0)"/><path d="M288.41,231.26l2.5-5.5.5-.21-2.5,5.5-.5.21" transform="translate(0 0)"/><path d="M288.91,231.05l2.5-5.5.5-.23-2.5,5.5-.5.23" transform="translate(0 0)"/><path d="M289.41,230.82l2.5-5.5.5-.25-2.5,5.5-.5.25" transform="translate(0 0)"/><path d="M289.91,230.57l2.5-5.5.55-.3-2.5,5.5c-.18.11-.36.2-.55.3" transform="translate(0 0)"/><path d="M290.46,230.27l2.5-5.5.54-.31L291,230l-.54.31" transform="translate(0 0)"/><path d="M291,230l2.5-5.5.62-.39-2.51,5.5L291,230" transform="translate(0 0)"/><path d="M291.61,229.57l2.51-5.5.6-.43-2.5,5.5-.61.43" transform="translate(0 0)"/><path d="M292.22,229.14l2.5-5.5c.26-.19.51-.38.75-.59l-2.5,5.51c-.24.2-.49.39-.75.58" transform="translate(0 0)"/><path d="M293,228.56l2.5-5.51a11,11,0,0,0,.88-.79l-2.5,5.51c-.28.27-.57.53-.88.79" transform="translate(0 0)"/><path d="M293.85,227.77l2.5-5.51a14.35,14.35,0,0,0,3.16-4.44l-2.5,5.5a14.51,14.51,0,0,1-3.16,4.45" transform="translate(0 0)"/></g></g></g><g class="cls-2"><g class="cls-15"><g class="cls-2"><path class="cls-16" d="M298.27,218.26l2.5-5.5c0,.16,0,.32,0,.47l-2.5,5.51c0-.16,0-.32,0-.48" transform="translate(0 0)"/><path class="cls-17" d="M298.23,218.74l2.5-5.51-.06.54-2.5,5.5.06-.53" transform="translate(0 0)"/><path class="cls-18" d="M298.17,219.27l2.5-5.5c0,.18-.05.36-.08.54l-2.51,5.51c0-.18.06-.36.09-.55" transform="translate(0 0)"/><path class="cls-19" d="M298.08,219.82l2.51-5.51c0,.21-.08.42-.13.63l-2.5,5.5c.05-.21.09-.41.12-.62" transform="translate(0 0)"/><path class="cls-20" d="M298,220.44l2.5-5.5c0,.2-.09.41-.14.61l-2.5,5.5c.05-.2.1-.4.14-.61" transform="translate(0 0)"/><path class="cls-21" d="M297.82,221.05l2.5-5.5c-.07.25-.14.5-.22.74l-2.5,5.5c.08-.24.15-.49.22-.74" transform="translate(0 0)"/><path class="cls-22" d="M297.6,221.79l2.5-5.5c-.08.26-.17.51-.27.76l-2.5,5.51c.1-.26.19-.51.27-.77" transform="translate(0 0)"/><path class="cls-23" d="M297.33,222.56l2.5-5.51c-.1.26-.21.52-.32.77l-2.5,5.5c.11-.25.22-.5.32-.76" transform="translate(0 0)"/></g></g></g><g class="cls-2"><g class="cls-24"><g class="cls-2"><path d="M299.23,218.44l2.51-5.5c0,.17,0,.34-.05.5l-2.5,5.5c0-.16,0-.33,0-.5" transform="translate(0 0)"/><path d="M299.19,218.94l2.5-5.5c0,.19,0,.38-.06.56l-2.5,5.51c0-.19.05-.38.06-.57" transform="translate(0 0)"/><path d="M299.13,219.51l2.5-5.51-.09.57-2.5,5.5.09-.56" transform="translate(0 0)"/><path d="M299,220.07l2.5-5.5c0,.22-.08.44-.12.65l-2.5,5.5.12-.65" transform="translate(0 0)"/><path d="M298.92,220.72l2.5-5.5c-.05.22-.1.43-.16.64l-2.5,5.5c.06-.21.11-.42.16-.64" transform="translate(0 0)"/><path d="M298.76,221.36l2.5-5.5c-.07.26-.14.52-.22.77l-2.5,5.51c.08-.26.15-.52.22-.78" transform="translate(0 0)"/><path d="M298.54,222.14l2.5-5.51c-.09.27-.18.54-.28.8l-2.5,5.5c.1-.26.19-.52.28-.79" transform="translate(0 0)"/><path d="M298.26,222.93l2.5-5.5c-.11.27-.22.54-.34.8l-2.5,5.5c.12-.26.23-.53.34-.8" transform="translate(0 0)"/></g></g></g><polygon points="9.94 26.39 12.44 20.89 3.51 154.97 1.01 160.48 9.94 26.39"/><polygon points="10.31 20.87 12.81 15.37 12.44 20.89 9.94 26.39 10.31 20.87"/><g class="cls-2"><g class="cls-25"><g class="cls-2"><path d="M11.57,15.8l2.5-5.5c-.12.25-.23.51-.33.77l-2.5,5.5c.1-.26.21-.51.33-.77" transform="translate(0 0)"/><path d="M11.24,16.57l2.5-5.5c-.09.25-.18.5-.26.76L11,17.33l.27-.76" transform="translate(0 0)"/><path d="M11,17.33l2.51-5.5c-.08.25-.16.49-.22.74l-2.5,5.5c.06-.25.14-.49.21-.74" transform="translate(0 0)"/><path d="M10.76,18.07l2.5-5.5-.15.62-2.5,5.5.15-.62" transform="translate(0 0)"/><path d="M10.61,18.69l2.5-5.5-.12.62-2.5,5.5.12-.62" transform="translate(0 0)"/><path d="M10.49,19.31l2.5-5.5c0,.18-.06.36-.08.54l-2.5,5.5c0-.18.05-.36.08-.54" transform="translate(0 0)"/><path d="M10.41,19.85l2.5-5.5a5,5,0,0,0-.06.54l-2.5,5.5a5,5,0,0,1,.06-.54" transform="translate(0 0)"/><path d="M10.35,20.39l2.5-5.5c0,.16,0,.32,0,.48l-2.5,5.5c0-.16,0-.32,0-.48" transform="translate(0 0)"/></g></g></g><g class="cls-2"><g class="cls-26"><g class="cls-2"><path class="cls-27" d="M11.57,15.8l2.5-5.5a14.6,14.6,0,0,1,3.15-4.44l-2.5,5.5a14.6,14.6,0,0,0-3.15,4.44" transform="translate(0 0)"/></g></g></g><g class="cls-2"><g class="cls-28"><g class="cls-2"><path class="cls-27" d="M11.57,15.8l2.5-5.5a14.6,14.6,0,0,1,3.15-4.44l-2.5,5.5a14.6,14.6,0,0,0-3.15,4.44" transform="translate(0 0)"/><path class="cls-23" d="M14.72,11.36l2.5-5.5c.29-.28.58-.54.88-.79l-2.5,5.5c-.3.25-.6.52-.88.79" transform="translate(0 0)"/><path class="cls-22" d="M15.6,10.57l2.5-5.5c.25-.2.5-.4.76-.59L16.36,10c-.26.19-.51.39-.76.59" transform="translate(0 0)"/><path class="cls-21" d="M16.36,10l2.5-5.5.6-.42L17,9.56l-.6.42" transform="translate(0 0)"/><path class="cls-20" d="M17,9.56l2.5-5.5c.2-.14.41-.27.62-.4l-2.5,5.5c-.21.13-.42.26-.62.4" transform="translate(0 0)"/><path class="cls-19" d="M17.58,9.16l2.5-5.5.53-.31-2.5,5.5-.53.31" transform="translate(0 0)"/><path class="cls-18" d="M18.11,8.85l2.5-5.5.55-.3-2.5,5.51-.55.29" transform="translate(0 0)"/><path class="cls-17" d="M18.66,8.56l2.5-5.51.51-.25-2.5,5.5-.51.26" transform="translate(0 0)"/><path class="cls-16" d="M19.17,8.3l2.5-5.5.5-.22-2.51,5.5-.49.22" transform="translate(0 0)"/><path class="cls-29" d="M19.66,8.08l2.51-5.5.5-.22-2.5,5.5-.51.22" transform="translate(0 0)"/><path class="cls-30" d="M20.17,7.86l2.5-5.5.46-.18-2.5,5.5-.46.18" transform="translate(0 0)"/><path class="cls-31" d="M20.63,7.68l2.5-5.5L23.6,2l-2.5,5.5-.47.17" transform="translate(0 0)"/><path class="cls-32" d="M21.1,7.51,23.6,2l.48-.16-2.51,5.5-.47.16" transform="translate(0 0)"/><path class="cls-33" d="M21.57,7.35l2.51-5.5.44-.14L22,7.22l-.45.13" transform="translate(0 0)"/><path class="cls-34" d="M22,7.22l2.5-5.51L25,1.59l-2.5,5.5L22,7.22" transform="translate(0 0)"/><path class="cls-35" d="M22.47,7.09,25,1.59l.46-.12L22.92,7l-.45.12" transform="translate(0 0)"/><path class="cls-36" d="M22.92,7l2.51-5.5.44-.1-2.5,5.5-.45.1" transform="translate(0 0)"/><path class="cls-37" d="M23.37,6.87l2.5-5.5.44-.1-2.5,5.51c-.15,0-.3.06-.44.09" transform="translate(0 0)"/><path class="cls-38" d="M23.81,6.78l2.5-5.51.44-.08-2.5,5.5-.44.09" transform="translate(0 0)"/><path class="cls-39" d="M24.25,6.69l2.5-5.5.44-.08-2.5,5.51-.44.07" transform="translate(0 0)"/><path class="cls-40" d="M24.69,6.62l2.5-5.51.43-.06-2.5,5.5-.43.07" transform="translate(0 0)"/><path class="cls-41" d="M25.12,6.55l2.5-5.5L28.05,1l-2.5,5.5-.43,0" transform="translate(0 0)"/></g></g></g><g class="cls-2"><g class="cls-42"><g class="cls-2"><path d="M10.65,15.39l2.5-5.5a15.27,15.27,0,0,1,3.29-4.64l-2.5,5.5a15.27,15.27,0,0,0-3.29,4.64" transform="translate(0 0)"/><path d="M13.94,10.75l2.5-5.5c.3-.29.61-.56.92-.82l-2.5,5.5c-.31.26-.62.54-.92.82" transform="translate(0 0)"/><path d="M14.86,9.93l2.5-5.5c.26-.22.52-.42.79-.62l-2.5,5.5c-.27.2-.53.41-.79.62" transform="translate(0 0)"/><path d="M15.65,9.31l2.5-5.5.63-.44-2.5,5.5-.63.44" transform="translate(0 0)"/><path d="M16.28,8.87l2.5-5.5L19.43,3l-2.5,5.51-.65.41" transform="translate(0 0)"/><path d="M16.93,8.46,19.43,3,20,2.63l-2.5,5.5-.56.33" transform="translate(0 0)"/><path d="M17.49,8.13,20,2.63l.57-.31-2.5,5.5-.57.31" transform="translate(0 0)"/><path d="M18.06,7.82l2.5-5.5.53-.26-2.5,5.5-.53.26" transform="translate(0 0)"/><path d="M18.59,7.56l2.5-5.5.52-.24-2.5,5.5-.52.24" transform="translate(0 0)"/><path d="M19.11,7.32l2.5-5.5.53-.22-2.5,5.5-.53.22" transform="translate(0 0)"/><path d="M19.64,7.1l2.5-5.5.48-.19-2.5,5.5-.48.19" transform="translate(0 0)"/><path d="M20.12,6.91l2.5-5.5.49-.18-2.5,5.5-.49.18" transform="translate(0 0)"/><path d="M20.61,6.73l2.5-5.5.5-.17-2.5,5.51-.5.16" transform="translate(0 0)"/><path d="M21.11,6.57l2.5-5.51.46-.14-2.5,5.5-.46.15" transform="translate(0 0)"/><path d="M21.57,6.42l2.5-5.5.47-.13L22,6.29l-.47.13" transform="translate(0 0)"/><path d="M22,6.29l2.5-5.5L25,.66l-2.5,5.51L22,6.29" transform="translate(0 0)"/><path d="M22.52,6.17,25,.66l.46-.1L23,6.06l-.46.11" transform="translate(0 0)"/><path d="M23,6.06l2.5-5.5.46-.1L23.44,6l-.46.1" transform="translate(0 0)"/><path d="M23.44,6l2.5-5.5L26.4.37l-2.5,5.5L23.44,6" transform="translate(0 0)"/><path d="M23.9,5.87,26.4.37l.47-.08-2.51,5.5-.46.08" transform="translate(0 0)"/><path d="M24.36,5.79,26.87.29l.44-.06-2.5,5.5-.45.06" transform="translate(0 0)"/><path d="M24.81,5.73l2.5-5.5.45-.06-2.5,5.5-.45.06" transform="translate(0 0)"/><path d="M25.26,5.67l2.5-5.5.46-.05-2.5,5.5-.46,0" transform="translate(0 0)"/><path d="M25.72,5.62l2.5-5.5.45,0-2.5,5.5-.45,0" transform="translate(0 0)"/><path d="M26.17,5.58l2.5-5.5.44,0-2.5,5.5-.44,0" transform="translate(0 0)"/><path d="M26.61,5.55l2.5-5.5.44,0-2.5,5.51-.44,0" transform="translate(0 0)"/><path d="M27.05,5.53,29.55,0H30l-2.5,5.5-.44,0" transform="translate(0 0)"/><path d="M27.49,5.51,30,0h.44l-2.5,5.5h-.44" transform="translate(0 0)"/><path d="M27.93,5.5,30.43,0h.42l-2.5,5.5h-.42" transform="translate(0 0)"/><path d="M28.35,5.5,30.85,0h.42l-2.5,5.5h-.42" transform="translate(0 0)"/><path d="M28.77,5.51,31.27,0h.42l-2.5,5.5h-.42" transform="translate(0 0)"/><path d="M29.19,5.52,31.69,0l.43,0-2.5,5.5-.43,0" transform="translate(0 0)"/><path d="M29.62,5.54,32.12,0l.38,0L30,5.57l-.38,0" transform="translate(0 0)"/><path d="M30,5.57,32.5.07l.39,0-2.5,5.5-.39,0" transform="translate(0 0)"/><path d="M30.39,5.6,32.89.1l.39,0-2.5,5.51-.39,0" transform="translate(0 0)"/><path d="M30.78,5.64,33.28.13l.39,0-2.5,5.5-.39,0" transform="translate(0 0)"/><path d="M31.17,5.68l2.5-5.5.38,0-2.5,5.51-.38-.05" transform="translate(0 0)"/><path d="M31.55,5.73,34.05.22l.35.05-2.5,5.5-.35,0" transform="translate(0 0)"/><path d="M31.9,5.77,34.4.27l.35,0-2.5,5.51-.35-.06" transform="translate(0 0)"/><path d="M32.25,5.83,34.75.32l.35.06-2.5,5.5-.35,0" transform="translate(0 0)"/><path d="M32.6,5.88,35.1.38l.36.06L33,6l-.36-.07" transform="translate(0 0)"/><path d="M33,6,35.46.44l.32.06L33.28,6A3,3,0,0,0,33,6" transform="translate(0 0)"/></g></g></g><path class="cls-43" d="M1,160.48,9.88,27.2,307.14,85l-8.87,133.27c-.67,10.07-10.95,16.37-22.93,14.05L21.5,183C9.53,180.64.34,170.55,1,160.48Z" transform="translate(0 0)"/><polygon class="cls-44" points="9.88 27.2 12.38 21.7 309.64 79.48 307.14 84.98 9.88 27.2"/><polygon class="cls-16" points="307.14 84.98 309.64 79.48 300.77 212.75 298.27 218.26 307.14 84.98"/><polygon points="307.14 84.98 309.64 79.48 309.91 79.12 307.41 84.63 307.14 84.98"/><polygon points="307.2 84.17 309.7 78.67 310.13 79.58 307.63 85.08 307.2 84.17"/><polygon points="9.88 27.2 12.38 21.7 309.7 78.67 307.2 84.17 9.88 27.2"/><polygon points="307.2 84.17 307.63 85.08 9.88 27.2 307.2 84.17"/><polygon points="310.19 78.77 307.68 84.27 307.41 84.63 309.91 79.12 310.19 78.77"/><polygon class="cls-16" points="307.56 78.65 310.06 73.15 309.7 78.67 307.2 84.17 307.56 78.65"/><polygon points="308.53 78.84 311.03 73.34 301.74 212.94 299.24 218.44 308.53 78.84"/><polygon class="cls-44" points="33.23 6.82 35.73 1.32 289.57 50.66 287.06 56.16 33.23 6.82"/><g class="cls-2"><g class="cls-45"><g class="cls-2"><path class="cls-46" d="M294.74,58.87l2.5-5.5q.66.35,1.29.72l-2.5,5.5q-.63-.37-1.29-.72" transform="translate(0 0)"/><path class="cls-47" d="M296,59.59l2.5-5.5,1,.61L297,60.21c-.32-.21-.64-.42-1-.62" transform="translate(0 0)"/><path class="cls-48" d="M297,60.21l2.5-5.51.44.3-2.5,5.5-.44-.29" transform="translate(0 0)"/><path class="cls-49" d="M297.44,60.5l2.5-5.5.43.3-2.5,5.5-.43-.3" transform="translate(0 0)"/><path class="cls-50" d="M297.87,60.8l2.5-5.5.43.31-2.5,5.5-.43-.31" transform="translate(0 0)"/><path class="cls-51" d="M298.3,61.11l2.5-5.5.31.23-2.5,5.5-.31-.23" transform="translate(0 0)"/><path class="cls-52" d="M298.61,61.34l2.5-5.5.31.24-2.5,5.5-.31-.24" transform="translate(0 0)"/><path class="cls-53" d="M298.92,61.58l2.5-5.5.3.24-2.5,5.5-.3-.24" transform="translate(0 0)"/><path class="cls-54" d="M299.22,61.82l2.5-5.5.29.24-2.5,5.51-.29-.25" transform="translate(0 0)"/><path class="cls-55" d="M299.51,62.07l2.5-5.51.29.24-2.5,5.5-.29-.23" transform="translate(0 0)"/><path class="cls-56" d="M299.8,62.3l2.5-5.5.26.24-2.5,5.5-.26-.24" transform="translate(0 0)"/><path class="cls-57" d="M300.06,62.54l2.5-5.5.27.23-2.5,5.51-.27-.24" transform="translate(0 0)"/><path class="cls-58" d="M300.33,62.78l2.5-5.51.26.24L300.59,63a2.84,2.84,0,0,0-.26-.24" transform="translate(0 0)"/><path class="cls-59" d="M300.59,63l2.5-5.51.26.25-2.5,5.5-.26-.24" transform="translate(0 0)"/><path class="cls-60" d="M300.85,63.26l2.5-5.5.26.25-2.5,5.5-.26-.25" transform="translate(0 0)"/><path class="cls-61" d="M301.11,63.51l2.5-5.5.26.26-2.5,5.5c-.09-.09-.18-.17-.26-.26" transform="translate(0 0)"/><path class="cls-62" d="M301.37,63.77l2.5-5.5.25.26-2.5,5.5-.25-.26" transform="translate(0 0)"/><path class="cls-63" d="M301.62,64l2.5-5.5.25.26-2.5,5.5-.25-.26" transform="translate(0 0)"/><path class="cls-64" d="M301.87,64.29l2.5-5.5.25.27-2.5,5.51c-.08-.1-.17-.19-.25-.28" transform="translate(0 0)"/><path class="cls-65" d="M302.12,64.57l2.5-5.51.26.3-2.5,5.5a3.58,3.58,0,0,0-.26-.29" transform="translate(0 0)"/><path class="cls-66" d="M302.38,64.86l2.5-5.5.26.3-2.5,5.5-.26-.3" transform="translate(0 0)"/><path class="cls-67" d="M302.64,65.16l2.5-5.5.25.3-2.5,5.5-.25-.3" transform="translate(0 0)"/><path class="cls-68" d="M302.89,65.46l2.5-5.5a3.76,3.76,0,0,1,.25.31l-2.5,5.5c-.08-.1-.16-.21-.25-.31" transform="translate(0 0)"/><path class="cls-69" d="M303.14,65.77l2.5-5.5.26.33-2.5,5.5-.26-.33" transform="translate(0 0)"/><path class="cls-70" d="M303.4,66.1l2.5-5.5.26.34-2.51,5.5-.25-.34" transform="translate(0 0)"/><path class="cls-71" d="M303.65,66.44l2.51-5.5.24.34-2.5,5.5-.25-.34" transform="translate(0 0)"/><path class="cls-72" d="M303.9,66.78l2.5-5.5.25.35-2.51,5.5-.24-.35" transform="translate(0 0)"/><path class="cls-73" d="M304.14,67.13l2.51-5.5.24.37-2.5,5.5-.25-.37" transform="translate(0 0)"/><path class="cls-74" d="M304.39,67.5l2.5-5.5.24.37-2.5,5.5-.24-.37" transform="translate(0 0)"/><path class="cls-75" d="M304.63,67.87l2.5-5.5.23.37-2.51,5.5-.22-.37" transform="translate(0 0)"/><path class="cls-76" d="M304.85,68.24l2.51-5.5.22.38-2.5,5.5-.23-.38" transform="translate(0 0)"/><path class="cls-77" d="M305.08,68.62l2.5-5.5.21.38L305.29,69l-.21-.39" transform="translate(0 0)"/><path class="cls-44" d="M305.29,69l2.5-5.51.21.39-2.5,5.5-.21-.38" transform="translate(0 0)"/><path class="cls-78" d="M305.5,69.39l2.5-5.5.19.39-2.5,5.5-.19-.39" transform="translate(0 0)"/><path class="cls-79" d="M305.69,69.78l2.5-5.5c.07.13.13.26.19.39l-2.5,5.5c-.06-.13-.12-.26-.19-.39" transform="translate(0 0)"/><path class="cls-80" d="M305.88,70.17l2.5-5.5.18.39-2.5,5.5-.18-.39" transform="translate(0 0)"/><path class="cls-81" d="M306.06,70.56l2.5-5.5c.06.13.11.26.17.4l-2.5,5.5c-.06-.13-.12-.27-.17-.4" transform="translate(0 0)"/><path class="cls-82" d="M306.23,71l2.5-5.5.15.39-2.5,5.5-.15-.39" transform="translate(0 0)"/><path class="cls-83" d="M306.38,71.35l2.5-5.5c.06.13.1.26.15.39l-2.5,5.51-.15-.4" transform="translate(0 0)"/><path class="cls-84" d="M306.53,71.75l2.5-5.51c.05.13.1.27.14.4l-2.5,5.5c0-.13-.09-.26-.14-.39" transform="translate(0 0)"/><path class="cls-85" d="M306.67,72.14l2.5-5.5c.05.13.09.26.13.4l-2.5,5.5c0-.13-.08-.27-.13-.4" transform="translate(0 0)"/><path class="cls-86" d="M306.8,72.54l2.5-5.5.12.4-2.5,5.5-.12-.4" transform="translate(0 0)"/><path class="cls-41" d="M306.92,72.94l2.5-5.5c0,.13.08.26.11.4l-2.5,5.5c0-.13-.07-.27-.11-.4" transform="translate(0 0)"/><path class="cls-40" d="M307,73.34l2.5-5.5c0,.13.07.27.1.4l-2.5,5.5c0-.13-.06-.27-.1-.4" transform="translate(0 0)"/><path class="cls-39" d="M307.13,73.74l2.5-5.5c0,.13.07.27.1.4l-2.5,5.51c0-.14-.06-.27-.1-.41" transform="translate(0 0)"/><path class="cls-38" d="M307.23,74.15l2.5-5.51c0,.14,0,.28.08.42l-2.5,5.5c0-.14-.05-.28-.08-.41" transform="translate(0 0)"/><path class="cls-37" d="M307.31,74.56l2.5-5.5c0,.14.05.28.07.42l-2.5,5.5c0-.14,0-.28-.07-.42" transform="translate(0 0)"/><path class="cls-36" d="M307.38,75l2.5-5.5c0,.13.05.27.07.41l-2.5,5.5c0-.14,0-.27-.07-.41" transform="translate(0 0)"/><path class="cls-35" d="M307.45,75.39l2.5-5.5c0,.14,0,.29.05.43l-2.5,5.5c0-.14,0-.28-.05-.43" transform="translate(0 0)"/><path class="cls-34" d="M307.5,75.82l2.5-5.5c0,.15,0,.29,0,.44l-2.5,5.5c0-.15,0-.29,0-.44" transform="translate(0 0)"/><path class="cls-33" d="M307.54,76.26l2.5-5.5a3.25,3.25,0,0,1,0,.44l-2.5,5.5c0-.14,0-.29,0-.44" transform="translate(0 0)"/><path class="cls-32" d="M307.57,76.7l2.5-5.5c0,.15,0,.3,0,.44l-2.5,5.51c0-.15,0-.3,0-.45" transform="translate(0 0)"/><path class="cls-31" d="M307.59,77.15l2.5-5.51c0,.16,0,.33,0,.49l-2.5,5.5c0-.16,0-.32,0-.48" transform="translate(0 0)"/><path class="cls-30" d="M307.6,77.63l2.5-5.5c0,.16,0,.32,0,.48l-2.5,5.5c0-.16,0-.32,0-.48" transform="translate(0 0)"/><path class="cls-29" d="M307.59,78.11l2.5-5.5c0,.16,0,.32,0,.48l-2.5,5.5c0-.16,0-.32,0-.48" transform="translate(0 0)"/><path class="cls-16" d="M307.57,78.59l2.5-5.5v.06l-2.51,5.5v-.06" transform="translate(0 0)"/></g></g></g><polygon points="33.28 6.01 35.78 0.51 289.62 49.84 287.12 55.35 33.28 6.01"/><g class="cls-2"><g class="cls-87"><g class="cls-2"><path class="cls-68" d="M287.07,56.16l2.5-5.5h0l-2.5,5.5h0" transform="translate(0 0)"/><path class="cls-67" d="M287.09,56.16l2.5-5.5.31.06-2.5,5.51-.31-.07" transform="translate(0 0)"/><path class="cls-66" d="M287.4,56.23l2.5-5.51.31.07-2.5,5.5-.31-.06" transform="translate(0 0)"/><path class="cls-65" d="M287.71,56.29l2.5-5.5.3.07-2.5,5.5-.3-.07" transform="translate(0 0)"/><path class="cls-64" d="M288,56.36l2.5-5.5.31.07-2.5,5.5-.31-.07" transform="translate(0 0)"/><path class="cls-63" d="M288.32,56.43l2.5-5.5.3.08-2.5,5.5-.3-.08" transform="translate(0 0)"/><path class="cls-62" d="M288.62,56.51l2.5-5.5.31.08-2.51,5.5-.3-.08" transform="translate(0 0)"/><path class="cls-61" d="M288.92,56.59l2.51-5.5.29.08-2.5,5.5-.3-.08" transform="translate(0 0)"/><path class="cls-60" d="M289.22,56.67l2.5-5.5.3.08-2.5,5.5-.3-.08" transform="translate(0 0)"/><path class="cls-59" d="M289.52,56.75l2.5-5.5.29.09-2.5,5.5-.29-.09" transform="translate(0 0)"/><path class="cls-58" d="M289.81,56.84l2.5-5.5.29.09-2.5,5.5-.29-.09" transform="translate(0 0)"/><path class="cls-57" d="M290.1,56.93l2.5-5.5.29.09-2.5,5.5-.29-.09" transform="translate(0 0)"/><path class="cls-56" d="M290.39,57l2.5-5.5.3.1-2.5,5.51-.3-.11" transform="translate(0 0)"/><path class="cls-55" d="M290.69,57.13l2.5-5.51.33.12-2.5,5.5-.33-.11" transform="translate(0 0)"/><path class="cls-54" d="M291,57.24l2.5-5.5.33.11-2.5,5.51-.33-.12" transform="translate(0 0)"/><path class="cls-53" d="M291.35,57.36l2.5-5.51.32.13-2.5,5.5-.32-.12" transform="translate(0 0)"/><path class="cls-52" d="M291.67,57.48l2.5-5.5.32.12L292,57.6l-.32-.12" transform="translate(0 0)"/><path class="cls-51" d="M292,57.6l2.5-5.5.35.14-2.5,5.5L292,57.6" transform="translate(0 0)"/><path class="cls-50" d="M292.34,57.74l2.5-5.5.46.2-2.5,5.5-.46-.2" transform="translate(0 0)"/><path class="cls-49" d="M292.8,57.94l2.5-5.5.46.2-2.5,5.5-.46-.2" transform="translate(0 0)"/><path class="cls-48" d="M293.26,58.14l2.5-5.5.45.21-2.5,5.5-.45-.21" transform="translate(0 0)"/><path class="cls-47" d="M293.71,58.35l2.5-5.5,1,.52-2.5,5.5-1-.52" transform="translate(0 0)"/><path class="cls-46" d="M294.74,58.87l2.5-5.5q.66.35,1.29.72l-2.5,5.5q-.63-.37-1.29-.72" transform="translate(0 0)"/></g></g></g><path class="cls-43" d="M287.07,56.16c12,2.33,21.17,12.42,20.49,22.49l-.36,5.52L9.94,26.39l.37-5.52c.67-10.08,11-16.38,22.92-14Z" transform="translate(0 0)"/><path d="M287.12,55.35c12.51,2.43,22.11,13,21.41,23.49l-9.3,139.6c-.7,10.53-11.44,17.11-24,14.68L21.45,183.78C8.94,181.35-.66,170.81,0,160.29L9.33,20.68C10,10.16,20.78,3.58,33.28,6Zm20,29.64.54-.72-.12-5.62c.68-10.08-8.51-20.16-20.49-22.49L33.23,6.82c-12-2.33-22.25,4-22.92,14.05l-.37,5.52L1,160.48C.34,170.55,9.53,180.64,21.5,183l253.84,49.34c12,2.32,22.26-4,22.93-14.05L307.14,85" transform="translate(0 0)"/><g class="cls-2"><g class="cls-88"><g class="cls-2"><path d="M287.12,55.35l2.5-5.5h0l-2.51,5.5h0" transform="translate(0 0)"/><path d="M287.14,55.35l2.51-5.5.32.07-2.5,5.5-.33-.07" transform="translate(0 0)"/><path d="M287.47,55.42l2.5-5.5.32.06-2.5,5.51-.32-.07" transform="translate(0 0)"/><path d="M287.79,55.49l2.5-5.51.32.08-2.5,5.5-.32-.07" transform="translate(0 0)"/><path d="M288.11,55.56l2.5-5.5.32.07-2.5,5.5-.32-.07" transform="translate(0 0)"/><path d="M288.43,55.63l2.5-5.5.32.08-2.5,5.5-.32-.08" transform="translate(0 0)"/><path d="M288.75,55.71l2.5-5.5.31.08-2.5,5.51-.31-.09" transform="translate(0 0)"/><path d="M289.06,55.8l2.5-5.51.31.09-2.5,5.5-.31-.08" transform="translate(0 0)"/><path d="M289.37,55.88l2.5-5.5.31.09-2.5,5.5-.31-.09" transform="translate(0 0)"/><path d="M289.68,56l2.5-5.5.3.09-2.5,5.5-.3-.09" transform="translate(0 0)"/><path d="M290,56.06l2.5-5.5.31.09-2.5,5.5-.31-.09" transform="translate(0 0)"/><path d="M290.29,56.15l2.5-5.5.3.1-2.5,5.5-.3-.1" transform="translate(0 0)"/><path d="M290.59,56.25l2.5-5.5.32.1-2.5,5.51-.32-.11" transform="translate(0 0)"/><path class="cls-4" d="M290.91,56.36l2.5-5.51.34.12-2.5,5.5-.34-.11" transform="translate(0 0)"/><path class="cls-5" d="M291.25,56.47l2.5-5.5.34.12-2.5,5.51-.34-.13" transform="translate(0 0)"/><path class="cls-6" d="M291.59,56.6l2.5-5.51.34.13-2.5,5.5-.34-.12" transform="translate(0 0)"/><path class="cls-7" d="M291.93,56.72l2.5-5.5.33.13-2.5,5.5-.33-.13" transform="translate(0 0)"/><path class="cls-8" d="M292.26,56.85l2.5-5.5.36.15-2.5,5.5-.36-.15" transform="translate(0 0)"/><path class="cls-9" d="M292.62,57l2.5-5.5.49.2-2.5,5.5-.49-.2" transform="translate(0 0)"/><path class="cls-10" d="M293.11,57.2l2.5-5.5.48.22-2.5,5.5-.48-.22" transform="translate(0 0)"/><path class="cls-11" d="M293.59,57.42l2.5-5.5.47.22-2.5,5.5-.47-.22" transform="translate(0 0)"/><path class="cls-12" d="M294.06,57.64l2.5-5.5,1.07.53-2.5,5.51c-.35-.19-.71-.37-1.07-.54" transform="translate(0 0)"/><path class="cls-13" d="M295.13,58.18l2.5-5.51c.46.25.91.5,1.35.76l-2.5,5.5q-.66-.39-1.35-.75" transform="translate(0 0)"/><path class="cls-12" d="M296.48,58.93l2.5-5.5,1,.64-2.5,5.5-1-.64" transform="translate(0 0)"/><path class="cls-11" d="M297.5,59.57l2.5-5.5.46.31-2.5,5.5-.46-.31" transform="translate(0 0)"/><path class="cls-10" d="M298,59.88l2.5-5.5.45.31-2.5,5.5-.45-.31" transform="translate(0 0)"/><path class="cls-9" d="M298.41,60.19l2.5-5.5.44.32-2.5,5.51-.44-.33" transform="translate(0 0)"/><path class="cls-8" d="M298.85,60.52l2.5-5.51.33.25-2.5,5.5-.33-.24" transform="translate(0 0)"/><path class="cls-7" d="M299.18,60.76l2.5-5.5.32.25L299.5,61l-.32-.25" transform="translate(0 0)"/><path class="cls-6" d="M299.5,61l2.5-5.5.31.25-2.5,5.5L299.5,61" transform="translate(0 0)"/><path class="cls-5" d="M299.81,61.26l2.5-5.5.31.25-2.5,5.51-.31-.26" transform="translate(0 0)"/><path class="cls-4" d="M300.12,61.52l2.5-5.51.29.25-2.5,5.51a3.47,3.47,0,0,0-.29-.25" transform="translate(0 0)"/><path d="M300.41,61.77l2.5-5.51.29.25L300.69,62l-.28-.24" transform="translate(0 0)"/><path d="M300.69,62l2.51-5.5.27.25-2.5,5.5-.28-.25" transform="translate(0 0)"/><path d="M301,62.26l2.5-5.5.27.25-2.5,5.5-.27-.25" transform="translate(0 0)"/><path d="M301.24,62.51l2.5-5.5a3.2,3.2,0,0,1,.27.25l-2.5,5.5-.27-.25" transform="translate(0 0)"/><path d="M301.51,62.76l2.5-5.5.28.26L301.79,63l-.28-.27" transform="translate(0 0)"/><path d="M301.79,63l2.5-5.51.27.27-2.51,5.51a2.23,2.23,0,0,0-.26-.27" transform="translate(0 0)"/><path d="M302.05,63.3l2.51-5.51.26.28-2.5,5.5-.27-.27" transform="translate(0 0)"/><path d="M302.32,63.57l2.5-5.5.26.27-2.5,5.5-.26-.27" transform="translate(0 0)"/><path d="M302.58,63.84l2.5-5.5c.09.1.18.19.26.29l-2.5,5.5c-.08-.1-.17-.19-.26-.29" transform="translate(0 0)"/><path d="M302.84,64.13l2.5-5.5.28.3-2.5,5.51c-.09-.11-.19-.21-.28-.31" transform="translate(0 0)"/><path d="M303.12,64.44l2.5-5.51.27.32-2.5,5.5-.27-.31" transform="translate(0 0)"/><path d="M303.39,64.75l2.5-5.5.26.31-2.5,5.5-.26-.31" transform="translate(0 0)"/><path d="M303.65,65.06l2.5-5.5c.09.11.17.22.26.32l-2.5,5.5c-.09-.1-.17-.21-.26-.32" transform="translate(0 0)"/><path d="M303.91,65.38l2.5-5.5.27.35-2.5,5.5-.27-.35" transform="translate(0 0)"/><path d="M304.18,65.73l2.5-5.5.27.36-2.5,5.5-.27-.36" transform="translate(0 0)"/><path d="M304.45,66.09l2.5-5.5.26.35-2.51,5.51-.25-.36" transform="translate(0 0)"/><path d="M304.7,66.45l2.51-5.51.25.37-2.5,5.5-.26-.36" transform="translate(0 0)"/><path d="M305,66.81l2.5-5.5.25.38-2.5,5.5-.25-.38" transform="translate(0 0)"/><path d="M305.21,67.19l2.5-5.5c.09.13.17.26.25.39l-2.5,5.5c-.08-.13-.16-.26-.25-.39" transform="translate(0 0)"/><path d="M305.46,67.58l2.5-5.5.24.39L305.7,68l-.24-.39" transform="translate(0 0)"/><path d="M305.7,68l2.5-5.5c.08.13.16.26.23.39l-2.5,5.5c-.07-.13-.15-.26-.23-.39" transform="translate(0 0)"/><path d="M305.93,68.36l2.5-5.5.23.4-2.5,5.51-.23-.41" transform="translate(0 0)"/><path d="M306.16,68.77l2.5-5.51.21.41-2.5,5.5-.21-.4" transform="translate(0 0)"/><path d="M306.37,69.17l2.5-5.5.21.41-2.5,5.5-.21-.41" transform="translate(0 0)"/><path d="M306.58,69.58l2.5-5.5.19.4-2.5,5.5-.19-.4" transform="translate(0 0)"/><path d="M306.77,70l2.5-5.5c.06.14.13.27.19.41l-2.5,5.5c-.06-.13-.13-.27-.19-.41" transform="translate(0 0)"/><path d="M307,70.39l2.5-5.5c.06.14.12.27.17.41l-2.5,5.5c-.06-.13-.11-.27-.17-.41" transform="translate(0 0)"/><path d="M307.13,70.8l2.5-5.5c.06.14.11.28.17.41l-2.5,5.51-.17-.42" transform="translate(0 0)"/><path d="M307.3,71.22l2.5-5.51.15.42-2.5,5.5-.15-.41" transform="translate(0 0)"/><path d="M307.45,71.63l2.5-5.5.15.41L307.6,72l-.15-.41" transform="translate(0 0)"/><path d="M307.6,72l2.5-5.5c0,.14.09.28.13.41l-2.5,5.51c0-.14-.09-.28-.13-.42" transform="translate(0 0)"/><path d="M307.73,72.46l2.5-5.51c0,.14.09.28.13.42l-2.5,5.5c0-.14-.08-.28-.13-.41" transform="translate(0 0)"/><path d="M307.86,72.87l2.5-5.5.12.42L308,73.29c0-.14-.07-.28-.11-.42" transform="translate(0 0)"/><path d="M308,73.29l2.51-5.5c0,.14.07.28.1.42l-2.5,5.5c0-.14-.07-.28-.11-.42" transform="translate(0 0)"/><path d="M308.08,73.71l2.5-5.5c0,.14.07.28.1.42l-2.5,5.51c0-.15-.07-.29-.1-.43" transform="translate(0 0)"/><path d="M308.18,74.14l2.5-5.51c0,.15.06.29.08.44l-2.5,5.5c0-.15-.05-.29-.08-.43" transform="translate(0 0)"/><path d="M308.26,74.57l2.5-5.5c0,.14.06.29.08.43l-2.5,5.5c0-.14,0-.29-.08-.43" transform="translate(0 0)"/><path d="M308.34,75l2.5-5.5c0,.15.05.29.07.44l-2.5,5.5c0-.15-.05-.29-.07-.44" transform="translate(0 0)"/><path d="M308.41,75.44l2.5-5.5c0,.14,0,.29,0,.44l-2.5,5.5c0-.14,0-.29,0-.44" transform="translate(0 0)"/><path d="M308.46,75.88l2.5-5.5c0,.16,0,.31.05.46l-2.5,5.5c0-.15,0-.3-.05-.46" transform="translate(0 0)"/><path d="M308.51,76.34l2.5-5.5,0,.46-2.5,5.51,0-.47" transform="translate(0 0)"/><path d="M308.54,76.81,311,71.3c0,.16,0,.31,0,.47l-2.5,5.5c0-.16,0-.31,0-.46" transform="translate(0 0)"/><path d="M308.56,77.27l2.5-5.5c0,.16,0,.33,0,.5l-2.5,5.5c0-.17,0-.33,0-.5" transform="translate(0 0)"/><path d="M308.57,77.77l2.5-5.5c0,.17,0,.33,0,.5l-2.5,5.5c0-.16,0-.33,0-.5" transform="translate(0 0)"/><path d="M308.56,78.27l2.5-5.5c0,.17,0,.34,0,.51l-2.5,5.5,0-.51" transform="translate(0 0)"/><path d="M308.53,78.78l2.5-5.5v.06l-2.5,5.5v-.06" transform="translate(0 0)"/></g></g></g></g><path class="cls-89" d="M25.51,9.86c4,.78,7.07,4.14,6.84,7.51s-3.65,5.47-7.65,4.69-7.07-4.14-6.85-7.51S21.5,9.08,25.51,9.86Z" transform="translate(0 0)"/><path class="cls-90" d="M49.67,14.56c4,.77,7.08,4.14,6.85,7.51s-3.65,5.46-7.66,4.68S41.8,22.61,42,19.25,45.67,13.78,49.67,14.56Z" transform="translate(0 0)"/><ellipse class="cls-91" cx="72.47" cy="25.17" rx="5.97" ry="7.5" transform="translate(19.57 80.73) rotate(-65.56)"/><g class="cls-2"><path d="M6,153.3l1.17-1.84a8.11,8.11,0,0,1,8.55-3.39l-1.17,1.85A8.1,8.1,0,0,0,6,153.3Z" transform="translate(0 0)"/><polygon points="14.59 149.92 15.76 148.07 147.23 173.63 146.07 175.47 14.59 149.92"/><path d="M153.9,186.63l-1.17,1.85a7.27,7.27,0,0,0,1.09-3.12c.52-4.52-2.95-9-7.75-9.89l1.16-1.84c4.81.93,8.28,5.36,7.76,9.88A7.54,7.54,0,0,1,153.9,186.63Z" transform="translate(0 0)"/><path d="M146.07,175.47c4.8.94,8.27,5.37,7.75,9.89s-4.84,7.43-9.64,6.5L12.7,166.3C7.89,165.37,4.43,161,5,156.42s4.83-7.44,9.64-6.5Z" transform="translate(0 0)"/></g><g class="cls-2"><path class="cls-92" d="M8.87,128.72,10,126.88a8.1,8.1,0,0,1,8.55-3.38l-1.16,1.84A8.13,8.13,0,0,0,8.87,128.72Z" transform="translate(0 0)"/><polygon class="cls-92" points="17.43 125.34 18.59 123.5 189.7 156.76 188.53 158.6 17.43 125.34"/><path class="cls-92" d="M196.36,169.76l-1.16,1.85a7.59,7.59,0,0,0,1.09-3.13c.52-4.52-2.95-8.94-7.76-9.88l1.17-1.84c4.81.93,8.27,5.36,7.75,9.88A7.27,7.27,0,0,1,196.36,169.76Z" transform="translate(0 0)"/><path class="cls-92" d="M188.53,158.6c4.81.94,8.28,5.36,7.76,9.88s-4.84,7.44-9.65,6.51L15.54,141.73c-4.81-.94-8.28-5.36-7.76-9.89s4.84-7.43,9.65-6.5Z" transform="translate(0 0)"/></g><g class="cls-2"><path class="cls-93" d="M6.87,103.21,8,101.37A8.11,8.11,0,0,1,16.59,98l-1.16,1.85A8.12,8.12,0,0,0,6.87,103.21Z" transform="translate(0 0)"/><polygon class="cls-93" points="15.43 99.83 16.59 97.98 71.69 108.69 70.53 110.54 15.43 99.83"/><path class="cls-93" d="M78.36,121.7l-1.17,1.84a7.4,7.4,0,0,0,1.09-3.12c.52-4.52-2.94-9-7.75-9.88l1.16-1.85c4.81.94,8.28,5.36,7.76,9.88A7.59,7.59,0,0,1,78.36,121.7Z" transform="translate(0 0)"/><path class="cls-93" d="M70.53,110.54c4.81.93,8.27,5.36,7.75,9.88s-4.83,7.44-9.64,6.5l-55.1-10.71c-4.81-.93-8.28-5.35-7.76-9.88s4.84-7.44,9.65-6.5Z" transform="translate(0 0)"/></g><g class="cls-2"><path d="M10.67,78.82,11.84,77a8.11,8.11,0,0,1,8.55-3.39l-1.16,1.85A8.12,8.12,0,0,0,10.67,78.82Z" transform="translate(0 0)"/><polygon points="19.23 75.44 20.39 73.59 152.35 99.24 151.19 101.09 19.23 75.44"/><path d="M159,112.24l-1.17,1.85a7.27,7.27,0,0,0,1.09-3.12c.52-4.52-2.95-9-7.76-9.88l1.17-1.85c4.8.94,8.28,5.36,7.76,9.89A7.5,7.5,0,0,1,159,112.24Z" transform="translate(0 0)"/><path d="M151.18,101.09c4.81.93,8.28,5.36,7.76,9.88s-4.84,7.43-9.64,6.5l-132-25.65c-4.81-.93-8.28-5.35-7.76-9.88s4.84-7.44,9.65-6.5Z" transform="translate(0 0)"/></g><g class="cls-2"><path class="cls-92" d="M177.91,111.33l1.17-1.84a8.1,8.1,0,0,1,8.55-3.39l-1.16,1.84A8.14,8.14,0,0,0,177.91,111.33Z" transform="translate(0 0)"/><polygon class="cls-92" points="186.47 107.94 187.63 106.1 266.42 121.42 265.26 123.26 186.47 107.94"/><path class="cls-92" d="M273.09,134.42l-1.17,1.84a7.27,7.27,0,0,0,1.09-3.12c.52-4.52-2.95-8.95-7.75-9.88l1.16-1.84c4.81.93,8.28,5.36,7.76,9.88A7.54,7.54,0,0,1,273.09,134.42Z" transform="translate(0 0)"/><path class="cls-92" d="M265.26,123.26c4.8.93,8.27,5.36,7.75,9.88s-4.84,7.44-9.64,6.5l-78.79-15.31c-4.81-.93-8.28-5.35-7.76-9.88s4.84-7.44,9.65-6.51Z" transform="translate(0 0)"/></g><g class="cls-2"><path class="cls-94" d="M13.5,54.25l1.17-1.85A8.12,8.12,0,0,1,23.23,49l-1.17,1.84A8.13,8.13,0,0,0,13.5,54.25Z" transform="translate(0 0)"/><polygon class="cls-94" points="22.06 50.86 23.23 49.02 221.41 87.54 220.24 89.38 22.06 50.86"/><path class="cls-94" d="M228.07,100.54l-1.17,1.84A7.23,7.23,0,0,0,228,99.27c.53-4.53-3-9-7.75-9.89l1.17-1.84c4.8.93,8.27,5.36,7.75,9.88A7.27,7.27,0,0,1,228.07,100.54Z" transform="translate(0 0)"/><path class="cls-94" d="M220.24,89.38c4.8.94,8.28,5.36,7.75,9.89s-4.84,7.43-9.64,6.5L20.17,67.24c-4.8-.93-8.28-5.35-7.76-9.88s4.85-7.43,9.65-6.5Z" transform="translate(0 0)"/></g><g class="cls-2"><path class="cls-95" d="M233,96.9l1.16-1.84a8.13,8.13,0,0,1,8.56-3.39l-1.17,1.85A8.11,8.11,0,0,0,233,96.9Z" transform="translate(0 0)"/><polygon class="cls-95" points="241.5 93.52 242.67 91.67 292.94 101.44 291.77 103.29 241.5 93.52"/><path class="cls-95" d="M299.61,114.44l-1.17,1.85a7.4,7.4,0,0,0,1.09-3.12c.52-4.52-2.95-9-7.76-9.88l1.17-1.85c4.8.94,8.28,5.36,7.76,9.89A7.5,7.5,0,0,1,299.61,114.44Z" transform="translate(0 0)"/><path class="cls-95" d="M291.77,103.29c4.81.93,8.28,5.36,7.76,9.88s-4.84,7.43-9.65,6.5l-50.27-9.77c-4.8-.93-8.28-5.35-7.75-9.88s4.84-7.44,9.64-6.5Z" transform="translate(0 0)"/></g><g class="cls-2"><path class="cls-95" d="M162.65,183.74l1.16-1.84a8.12,8.12,0,0,1,8.56-3.39l-1.17,1.85A8.1,8.1,0,0,0,162.65,183.74Z" transform="translate(0 0)"/><polygon class="cls-95" points="171.2 180.36 172.37 178.51 265.17 196.55 264 198.4 171.2 180.36"/><path class="cls-95" d="M271.83,209.56l-1.17,1.84a7.41,7.41,0,0,0,1.1-3.12c.52-4.52-2.95-8.95-7.76-9.88l1.17-1.85c4.81.94,8.27,5.36,7.75,9.89A7.27,7.27,0,0,1,271.83,209.56Z" transform="translate(0 0)"/><path class="cls-95" d="M264,198.4c4.81.93,8.28,5.36,7.76,9.88s-4.84,7.44-9.65,6.5l-92.8-18c-4.81-.93-8.28-5.35-7.75-9.88s4.83-7.44,9.64-6.5Z" transform="translate(0 0)"/></g><g class="cls-2"><path class="cls-94" d="M205.11,166.87l1.17-1.84a8.11,8.11,0,0,1,8.55-3.39l-1.16,1.85A8.12,8.12,0,0,0,205.11,166.87Z" transform="translate(0 0)"/><polygon class="cls-94" points="213.67 163.49 214.83 161.64 291.2 176.49 290.04 178.33 213.67 163.49"/><path class="cls-94" d="M297.87,189.49l-1.17,1.84a7.23,7.23,0,0,0,1.09-3.11c.53-4.53-3-8.95-7.75-9.89l1.17-1.84c4.8.93,8.27,5.36,7.75,9.88A7.27,7.27,0,0,1,297.87,189.49Z" transform="translate(0 0)"/><path class="cls-94" d="M290,178.33c4.8.94,8.28,5.36,7.75,9.89s-4.84,7.43-9.64,6.5l-76.37-14.85c-4.81-.93-8.28-5.35-7.76-9.88s4.84-7.44,9.65-6.5Z" transform="translate(0 0)"/></g></g></g></svg>